<svg xmlns="http://www.w3.org/2000/svg" version="1.1" xmlns:xlink="http://www.w3.org/1999/xlink" width="512" height="512" x="0" y="0" viewBox="0 0 512 512" style="enable-background:new 0 0 512 512" xml:space="preserve" class=""><g><path d="M512 429.932v34.133c-42.928 0-101.831-38.286-164.068-38.286-36.671 0-59.654 15.132-73.466 30.254H256l-22.756-106.018L512 429.932z" style="" fill="#2f46c6" data-original="#1b4145" opacity="1" class=""></path><path d="M256 350.015v106.018h-18.466c-13.813-15.121-36.796-30.254-73.466-30.254-62.236 0-121.139 38.286-164.068 38.286v-34.133l256-79.917z" style="" fill="#4d75e4" data-original="#609399" class="" opacity="1"></path><path d="M512 86.221v343.711c-42.928 0-101.831-38.286-164.068-38.286-36.671 0-59.654 15.132-73.466 30.254H256l-45.511-156.723L256 108.453s18.591-60.518 91.932-60.518c62.237 0 121.14 38.286 164.068 38.286z" style="" fill="#6f99eb" data-original="#6fc5d6" class="" opacity="1"></path><path d="M256 108.453v313.446h-18.466c-13.813-15.132-36.796-30.254-73.466-30.254-62.236 0-121.139 38.286-164.068 38.286V86.221c42.928 0 101.831-38.286 164.068-38.286 73.341 0 91.932 60.518 91.932 60.518z" style="" fill="#c5d6f8" data-original="#b4e5ea" class="" opacity="1"></path></g></svg>