<svg xmlns="http://www.w3.org/2000/svg" version="1.1" xmlns:xlink="http://www.w3.org/1999/xlink" width="512" height="512" x="0" y="0" viewBox="0 0 512 512" style="enable-background:new 0 0 512 512" xml:space="preserve" class=""><g><path fill="#ffdf46" d="m329.133 510.64-12.272-9.716a4.16 4.16 0 0 0-5.167 0l-12.272 9.716c-4.093 3.241-10.12.325-10.12-4.896V410.38h49.951v95.364c-.001 5.221-6.027 8.136-10.12 4.896z" opacity="1" data-original="#bbec6c" class=""></path><path fill="#dee7fb" d="m485.294 24.658-19.36-15.514a41.627 41.627 0 0 0-40.607-6.508L277.64 57.846A33.301 33.301 0 0 0 256 89.039v8.888h33.301z" opacity="1" data-original="#c8effe" class=""></path><path fill="#f1f5fd" d="m26.706 24.658 19.36-15.514a41.625 41.625 0 0 1 40.606-6.508l147.688 55.21A33.301 33.301 0 0 1 256 89.039v8.888h-33.301z" opacity="1" data-original="#dff6fd" class=""></path><path fill="#c5d6f8" d="m370.405 67.607 114.889-42.949-19.36-15.514a41.627 41.627 0 0 0-40.607-6.508l-44.971 16.811c-1.178 15.32-4.539 31.519-9.951 48.16z" opacity="1" data-original="#99e6fc" class=""></path><path fill="#70e5a7" d="M217.059 95.818 19.671 22.028C10.148 18.468 0 25.509 0 35.675v328.788a20.811 20.811 0 0 0 13.525 19.495l203.534 76.088a33.207 33.207 0 0 0 5.64 1.557V97.376a33.303 33.303 0 0 1-5.64-1.558z" opacity="1" data-original="#cb97e7" class=""></path><path fill="#f1f5fd" d="M41.626 140.957V83.675c0-4.357 4.349-7.374 8.43-5.849l124.254 46.45a10.406 10.406 0 0 1 6.762 9.748v57.281c0 4.357-4.349 7.374-8.43 5.849l-124.254-46.45a10.407 10.407 0 0 1-6.762-9.747z" opacity="1" data-original="#dff6fd" class=""></path><path fill="#12b769" d="M492.329 22.028 294.94 95.818a33.207 33.207 0 0 1-5.64 1.557v364.228a33.393 33.393 0 0 0 5.64-1.557l203.534-76.088a20.813 20.813 0 0 0 13.525-19.495V35.675c.001-10.166-10.147-17.207-19.67-13.647z" opacity="1" data-original="#af66da" class=""></path><path fill="#079455" d="M448.083 243.496c-44.774 66.432-101.84 115.788-158.782 142.656v75.451a33.393 33.393 0 0 0 5.64-1.557l203.534-76.088A20.813 20.813 0 0 0 512 364.463V101.025c-11.174 46.83-32.513 95.876-63.917 142.471z" opacity="1" data-original="#9857bd" class=""></path><g fill="#bd80e1"><path d="M283.28 97.927h-54.56c-2.024 0-4.039-.186-6.021-.551v33.852h66.602V97.376a33.35 33.35 0 0 1-6.021.551zM222.699 461.603c1.982.365 3.997.551 6.021.551h54.56c2.024 0 4.039-.186 6.021-.551v-33.301h-66.602zM222.699 164.528h66.602v230.473h-66.602z" fill="#36d183" opacity="1" data-original="#bd80e1" class=""></path></g><g fill="#ffe177"><path d="M222.699 395.002h66.602v33.301h-66.602zM222.699 131.228h66.602v33.301h-66.602z" fill="#ffdf46" opacity="1" data-original="#ffe177" class=""></path></g></g></svg>