<svg xmlns="http://www.w3.org/2000/svg" version="1.1" xmlns:xlink="http://www.w3.org/1999/xlink" width="512" height="512" x="0" y="0" viewBox="0 0 512 512" style="enable-background:new 0 0 512 512" xml:space="preserve" class=""><g><path fill="#36d183" d="M480.78 447.48H31.22C13.977 447.48 0 433.502 0 416.26V95.74c0-17.242 13.977-31.22 31.22-31.22h449.56c17.242 0 31.22 13.977 31.22 31.22v320.52c0 17.242-13.978 31.22-31.22 31.22z" opacity="1" data-original="#80d261" class=""></path><path fill="#f1f5fd" d="M480.785 133.364c-20.749 0-37.629-16.88-37.629-37.629a4 4 0 0 0-4-4H72.844a4 4 0 0 0-4 4c0 20.749-16.88 37.629-37.629 37.629a4 4 0 0 0-4 4v237.271a4 4 0 0 0 4 4c20.749 0 37.629 16.88 37.629 37.629a4 4 0 0 0 4 4h366.312a4 4 0 0 0 4-4c0-20.749 16.88-37.629 37.629-37.629a4 4 0 0 0 4-4V137.364a4 4 0 0 0-4-4z" opacity="1" data-original="#eef5f6" class=""></path><path fill="#12b769" d="M480.78 64.52h-31.219c17.242 0 31.219 13.977 31.219 31.22v320.52c0 17.242-13.977 31.22-31.219 31.22h31.219c17.242 0 31.22-13.977 31.22-31.22V95.74c0-17.242-13.977-31.22-31.22-31.22z" opacity="1" data-original="#68ca44" class=""></path><path fill="#dee7fb" d="M480.785 133.364c-12.988 0-24.459-6.615-31.224-16.652v278.576c6.765-10.037 18.236-16.652 31.224-16.652a4 4 0 0 0 4-4V137.364a4 4 0 0 0-4-4z" opacity="1" data-original="#deecf1" class=""></path><path fill="#6f99eb" d="M140.488 126.959h231.024a8.325 8.325 0 0 1 8.325 8.325v14.569a8.325 8.325 0 0 1-8.325 8.325H140.488a8.325 8.325 0 0 1-8.325-8.325v-14.569a8.325 8.325 0 0 1 8.325-8.325z" opacity="1" data-original="#5f99d7" class=""></path><path fill="#4d75e4" d="M371.512 126.959h-31.219a8.325 8.325 0 0 1 8.325 8.325v14.569a8.325 8.325 0 0 1-8.325 8.325h31.219a8.325 8.325 0 0 0 8.325-8.325v-14.569a8.325 8.325 0 0 0-8.325-8.325z" opacity="1" data-original="#3c87d0" class=""></path><path fill="#f87371" d="m382.058 316.311 35.969-20.767 28.889 50.038c1.548 2.681-.269 6.054-3.359 6.237l-13.334.788a6.242 6.242 0 0 0-4.845 2.797l-7.35 11.154c-1.704 2.585-5.533 2.472-7.081-.209z" opacity="1" data-original="#fe646f" class=""></path><path fill="#f05452" d="m418.028 295.545-35.969 20.767 14.917 25.836a89.056 89.056 0 0 0 38.465-16.443z" opacity="1" data-original="#fd4755" class=""></path><path fill="#f87371" d="m382.058 316.311-35.969-20.767-28.889 50.038c-1.548 2.681.269 6.054 3.359 6.237l13.334.788a6.242 6.242 0 0 1 4.845 2.797l7.35 11.154c1.704 2.585 5.533 2.472 7.081-.209z" opacity="1" data-original="#fe646f" class=""></path><path fill="#f05452" d="m346.089 295.545 35.969 20.767-14.917 25.836a89.056 89.056 0 0 1-38.465-16.443z" opacity="1" data-original="#fd4755" class=""></path><circle cx="382.058" cy="253.919" r="62.439" fill="#ffdf46" opacity="1" data-original="#ffd15b" class=""></circle><path fill="#ffcd1b" d="M415.07 200.926a62.129 62.129 0 0 1 9.447 33.012c0 34.484-27.955 62.439-62.439 62.439a62.129 62.129 0 0 1-33.012-9.447c11.029 17.666 30.632 29.427 52.992 29.427 34.484 0 62.439-27.955 62.439-62.439 0-22.359-11.761-41.963-29.427-52.992z" opacity="1" data-original="#ffc344" class=""></path><circle cx="382.058" cy="253.919" r="31.22" fill="#ffad05" opacity="1" data-original="#feb237" class=""></circle><path fill="#9dbcf3" d="M109.337 209.386H64.52c-4.143 0-7.5-3.358-7.5-7.5s3.357-7.5 7.5-7.5h44.816c4.143 0 7.5 3.358 7.5 7.5s-3.357 7.5-7.499 7.5zM231.024 209.386h-88.408c-4.143 0-7.5-3.358-7.5-7.5s3.357-7.5 7.5-7.5h88.408c4.143 0 7.5 3.358 7.5 7.5s-3.357 7.5-7.5 7.5zM216.455 240.605H64.52c-4.143 0-7.5-3.358-7.5-7.5s3.357-7.5 7.5-7.5h151.935c4.143 0 7.5 3.358 7.5 7.5s-3.357 7.5-7.5 7.5zM280.976 240.605h-31.22c-4.143 0-7.5-3.358-7.5-7.5s3.357-7.5 7.5-7.5h31.22a7.5 7.5 0 0 1 0 15zM110.299 271.825H64.52c-4.143 0-7.5-3.358-7.5-7.5s3.357-7.5 7.5-7.5h45.778c4.143 0 7.5 3.358 7.5 7.5s-3.357 7.5-7.499 7.5zM280.976 271.825H143.6c-4.143 0-7.5-3.358-7.5-7.5s3.357-7.5 7.5-7.5h137.376a7.5 7.5 0 0 1 0 15zM164.418 303.045H64.52c-4.143 0-7.5-3.358-7.5-7.5s3.357-7.5 7.5-7.5h99.897c4.143 0 7.5 3.358 7.5 7.5s-3.356 7.5-7.499 7.5z" opacity="1" data-original="#62dbfb" class=""></path><path fill="#f87371" d="M126.959 355.077H64.52c-4.143 0-7.5-3.358-7.5-7.5s3.357-7.5 7.5-7.5h62.438c4.143 0 7.5 3.358 7.5 7.5s-3.356 7.5-7.499 7.5zM280.976 355.077h-62.439c-4.143 0-7.5-3.358-7.5-7.5s3.357-7.5 7.5-7.5h62.439a7.5 7.5 0 0 1 0 15z" opacity="1" data-original="#fe646f" class=""></path><path fill="#9dbcf3" d="M231.024 303.045h-33.306c-4.143 0-7.5-3.358-7.5-7.5s3.357-7.5 7.5-7.5h33.306c4.143 0 7.5 3.358 7.5 7.5s-3.357 7.5-7.5 7.5z" opacity="1" data-original="#62dbfb" class=""></path><circle cx="41.507" cy="106.027" r="7.5" fill="#a8f2c6" opacity="1" data-original="#d5efc8" class=""></circle><circle cx="470.493" cy="106.027" r="7.5" fill="#a8f2c6" opacity="1" data-original="#d5efc8" class=""></circle><circle cx="41.507" cy="405.973" r="7.5" fill="#a8f2c6" opacity="1" data-original="#d5efc8" class=""></circle><circle cx="470.493" cy="405.973" r="7.5" fill="#a8f2c6" opacity="1" data-original="#d5efc8" class=""></circle></g></svg>