<svg xmlns="http://www.w3.org/2000/svg" version="1.1" xmlns:xlink="http://www.w3.org/1999/xlink" width="512" height="512" x="0" y="0" viewBox="0 0 512 512" style="enable-background:new 0 0 512 512" xml:space="preserve" class=""><g><path fill="#6f99eb" d="M94.785 36.493h354.326v443.339H94.785z" opacity="1" data-original="#b5ceff" class=""></path><path fill="#4d75e4" d="M398.368 36.493h50.743v443.339h-50.743z" opacity="1" data-original="#a4c2ff" class=""></path><path fill="#dee7fb" d="M62.889 68.661h354.326V512H62.889z" opacity="1" data-original="#e9f2ff" class=""></path><path fill="#c5d6f8" d="M366.472 68.661h50.743V512h-50.743z" opacity="1" data-original="#deebff" class=""></path><path fill="#f05452" d="M394.092 36.493v-1.662a19.453 19.453 0 0 0-5.796-13.906c-3.75-3.72-8.712-5.737-14.013-5.701-10.748.086-19.493 8.882-19.493 19.607v117.007c0 5.893 4.844 10.688 10.8 10.688 5.955 0 10.801-4.794 10.801-10.688v-38.109a3.363 3.363 0 0 0-3.358-3.362 7.612 7.612 0 1 1 0-15.224c10.246 0 18.581 8.337 18.581 18.585v38.109c0 14.287-11.674 25.911-26.023 25.911-14.35 0-26.024-11.623-26.024-25.911V34.831c0-19.052 15.518-34.676 34.593-34.83 9.385-.075 18.203 3.517 24.856 10.116 6.641 6.588 10.298 15.364 10.298 24.713v1.662h-15.222z" opacity="1" data-original="#f55745" class=""></path></g></svg>