<?xml version="1.0" encoding="UTF-8"?><svg id="a" xmlns="http://www.w3.org/2000/svg" width="512" height="512" viewBox="0 0 512 512"><path d="M401.99,61.14l-108.33,225.43,108.33,225.43h23.21c4.27,0,7.74-3.46,7.74-7.74V68.88c0-4.27-3.46-7.74-7.74-7.74h-23.21Z" style="fill:#ffcd1b; stroke-width:0px;"/><path d="M79.06,44.67v459.6c0,4.27,3.46,7.74,7.74,7.74h315.19v-92.85l-123.81-162.5,123.81-164.55v-30.95L79.06,44.67Z" style="fill:#ffdf46; stroke-width:0px;"/><path d="M371.04,2.15l-30.95,29.49,30.95,29.49h30.95V7.74c0-4.56-3.92-8.13-8.46-7.7l-22.49,2.12Z" style="fill:#e28200; stroke-width:0px;"/><path d="M93.99,28.27c-8.46.8-14.93,7.9-14.93,16.4,0,9.1,7.38,16.47,16.47,16.47h275.5V2.15L93.99,28.27Z" style="fill:#ffad05; stroke-width:0px;"/><path d="M110.01,92.09v388.96h138.25l7.74-20.63,7.74,20.63h138.25V92.09H110.01Z" style="fill:#fff7c5; stroke-width:0px;"/><path d="M248.26,377.88h15.48v103.17h-15.48v-103.17Z" style="fill:#fff; stroke-width:0px;"/><path d="M256,353.63c-12.82,0-23.21,10.39-23.21,23.21,12.11,2.99,9.38,7.74,23.21,7.74s11.1-4.75,23.21-7.74c0-12.82-10.39-23.21-23.21-23.21Z" style="fill:#dc2826; stroke-width:0px;"/><path d="M256,138.52v215.11c59.52-23.07,99.56-66.18,99.56-115.55,0-54.99-44.57-99.56-99.56-99.56h0Z" style="fill:#dc2826; stroke-width:0px;"/><path d="M324.61,238.08c0-54.99-30.72-99.56-68.61-99.56-54.99,0-99.56,44.57-99.56,99.56,0,49.38,40.04,92.49,99.56,115.55,41.01-23.07,68.61-66.18,68.61-115.55h0Z" style="fill:#f05452; stroke-width:0px;"/></svg>