<svg xmlns="http://www.w3.org/2000/svg" version="1.1" xmlns:xlink="http://www.w3.org/1999/xlink" width="512" height="512" x="0" y="0" viewBox="0 0 496.261 496.261" style="enable-background:new 0 0 512 512" xml:space="preserve" class=""><g><path fill="#ffcd1b" d="m389.63 59.261-105 218.5 105 218.5h22.5a7.5 7.5 0 0 0 7.5-7.5v-422a7.5 7.5 0 0 0-7.5-7.5z" opacity="1" data-original="#ffbe46" class=""></path><path fill="#ffdf46" d="M76.63 43.293V488.76a7.5 7.5 0 0 0 7.5 7.5h305.5v-90l-120-157.504 120-159.496v-30z" opacity="1" data-original="#ffd567" class=""></path><path fill="#e28200" d="m359.63 2.088-30 28.586 30 28.586h30V7.501c0-4.42-3.803-7.882-8.204-7.467z" opacity="1" data-original="#ff8b2a" class=""></path><path fill="#ffad05" d="M91.099 27.397c-8.202.773-14.469 7.659-14.469 15.896 0 8.818 7.149 15.967 15.967 15.967H359.63V2.088z" opacity="1" data-original="#ffa725" class=""></path><path fill="#fff7c5" d="M106.63 89.261v377h134l7.5-20 7.5 20h134v-377z" opacity="1" data-original="#ffe7ad" class=""></path><path fill="#ffffff" d="M240.63 366.261h15v100h-15z" opacity="1" data-original="#ffffff"></path><path fill="#ffad05" d="M248.13 342.76c-12.426 0-22.5 10.073-22.5 22.5 11.74 2.9 9.089 7.5 22.5 7.5s10.76-4.6 22.5-7.5c0-12.426-10.073-22.5-22.5-22.5z" opacity="1" data-original="#ffa725" class=""></path><path fill="#ffad05" d="M248.13 134.261v208.5c57.686-22.357 96.5-64.141 96.5-112 0-53.296-43.204-96.5-96.5-96.5z" opacity="1" data-original="#ffa725" class=""></path><path fill="#ffcd1b" d="M314.63 230.761c0-53.296-29.773-96.5-66.5-96.5-53.296 0-96.5 43.204-96.5 96.5 0 47.859 38.814 89.643 96.5 112 39.753-22.358 66.5-64.141 66.5-112z" opacity="1" data-original="#ffbe46" class=""></path></g></svg>