<svg xmlns="http://www.w3.org/2000/svg" version="1.1" xmlns:xlink="http://www.w3.org/1999/xlink" width="512" height="512" x="0" y="0" viewBox="0 0 497 497" style="enable-background:new 0 0 512 512" xml:space="preserve" class=""><g><path fill="#f1f5fd" fill-rule="evenodd" d="M99.893 54h389.34c4.28 0 7.767 3.485 7.767 7.734v288.4c0 4.25-3.487 7.762-7.767 7.762H99.893c-4.28 0-7.767-3.513-7.767-7.762v-288.4c0-4.249 3.487-7.734 7.767-7.734z" clip-rule="evenodd" opacity="1" data-original="#c8effe" class=""></path><path fill="#dee7fb" fill-rule="evenodd" d="M497 350.134v-288.4c0-4.25-3.487-7.734-7.767-7.734H354.559c16.951 14.788 31.947 32.041 44.561 51.192h45.014c4.45 0 8.079 3.626 8.079 8.074v244.63h37.021c4.279.001 7.766-3.512 7.766-7.762z" clip-rule="evenodd" opacity="1" data-original="#99e6fc" class=""></path><path fill="#36d183" fill-rule="evenodd" d="M62.079 90.178h389.368c4.252 0 7.739 3.485 7.739 7.762v288.372c0 4.278-3.487 7.762-7.739 7.762H62.079c-4.252 0-7.739-3.485-7.739-7.762V97.94c0-4.278 3.487-7.762 7.739-7.762z" clip-rule="evenodd" opacity="1" data-original="#80d261" class=""></path><path fill="#12b769" fill-rule="evenodd" d="M459.186 386.312V97.94c0-4.278-3.487-7.762-7.739-7.762H316.773c16.923 14.817 31.947 32.041 44.561 51.192h45.014c4.45 0 8.079 3.655 8.079 8.102V394.073h37.021c4.251.001 7.738-3.484 7.738-7.761z" clip-rule="evenodd" opacity="1" data-original="#68ca44" class=""></path><path fill="#f1f5fd" fill-rule="evenodd" d="M421.825 280.584V134.429c0-4.419-3.628-8.074-8.079-8.074H8.079c-4.45 0-8.079 3.655-8.079 8.074v146.155l221.953 25.865z" clip-rule="evenodd" opacity="1" data-original="#c8effe" class=""></path><path fill="#ffdf46" fill-rule="evenodd" d="m67.068 280.584 56.381 20.341 62.759-20.341c0-32.891-26.674-59.521-59.556-59.521-32.91-.001-59.584 26.63-59.584 59.521z" clip-rule="evenodd" opacity="1" data-original="#ffd86c" class=""></path><path fill="#ffcd1b" fill-rule="evenodd" d="M0 310.529v124.397C0 439.374 3.628 443 8.079 443h405.667c4.45 0 8.079-3.626 8.079-8.074V310.529z" clip-rule="evenodd" opacity="1" data-original="#fec165" class=""></path><path fill="#6f99eb" fill-rule="evenodd" d="M0 280.584v119.071h210.643c23.131 0 31.635-35.328-2.268-35.328h-10.687c-28.176 0-27.524-36.092 2.523-36.092h221.613v-47.651z" clip-rule="evenodd" opacity="1" data-original="#00c0fa" class=""></path><path fill="#ffcd1b" fill-rule="evenodd" d="M107.802 224.094c23.669 7.876 40.734 30.2 40.734 56.49h37.673c0-32.891-26.674-59.521-59.556-59.521-6.605-.001-12.927 1.048-18.851 3.031z" clip-rule="evenodd" opacity="1" data-original="#fec165" class=""></path><path fill="#dee7fb" fill-rule="evenodd" d="M413.746 126.355H282.388c31.947 42.127 47.622 95.557 51.336 154.229h88.101V134.429c0-4.419-3.628-8.074-8.079-8.074z" clip-rule="evenodd" opacity="1" data-original="#99e6fc" class=""></path><path fill="#4d75e4" fill-rule="evenodd" d="M421.825 280.584h-88.101c.255 3.768.425 7.536.51 11.332.085 2.663.113 5.354.113 8.017 0 3.57-.057 7.083-.17 10.595a327.508 327.508 0 0 1-1.134 17.706h88.781v-47.65z" clip-rule="evenodd" opacity="1" data-original="#08a9f1" class=""></path><path fill="#ffad05" fill-rule="evenodd" d="M421.825 328.235h-88.781c-3.912 41.9-16.413 80.911-35.49 114.765h116.193c4.45 0 8.079-3.626 8.079-8.074V328.235z" clip-rule="evenodd" opacity="1" data-original="#fdb440" class=""></path><path fill="#ffdf46" d="M126.624 190.178a7.559 7.559 0 0 1-7.559-7.559v-15.072c0-4.175 3.384-7.559 7.559-7.559s7.559 3.384 7.559 7.559v15.072a7.56 7.56 0 0 1-7.559 7.559zM72.397 203.039a7.536 7.536 0 0 1-5.344-2.212l-10.658-10.652a7.559 7.559 0 1 1 10.687-10.693l10.658 10.652a7.559 7.559 0 0 1-5.343 12.905zM180.879 203.039a7.559 7.559 0 0 1-5.344-12.905l10.658-10.652a7.559 7.559 0 1 1 10.687 10.693l-10.658 10.652a7.532 7.532 0 0 1-5.343 2.212z" opacity="1" data-original="#ffd86c" class=""></path></g></svg>