<?xml version="1.0" encoding="iso-8859-1"?>
<!-- Generator: Adobe Illustrator 19.0.0, SVG Export Plug-In . SVG Version: 6.00 Build 0)  -->
<svg version="1.1" id="Capa_1" xmlns="http://www.w3.org/2000/svg" xmlns:xlink="http://www.w3.org/1999/xlink" x="0px" y="0px"
	 viewBox="0 0 511.999 511.999" style="enable-background:new 0 0 511.999 511.999;" xml:space="preserve">
<path style="fill:#FFE17D;" d="M107.354,8.258v445.935c0,4.561,3.697,8.258,8.258,8.258h330.323c4.561,0,8.258-3.697,8.258-8.258
	V8.258c0-4.561-3.697-8.258-8.258-8.258H115.612C111.051,0,107.354,3.697,107.354,8.258z"/>
<path style="fill:#FFD164;" d="M396.386,33.032H107.354v421.161c0,4.56,3.697,8.258,8.258,8.258h305.548V57.806
	C421.161,44.124,410.07,33.032,396.386,33.032z"/>
<path style="fill:#FF8087;" d="M57.805,57.806v445.935c0,4.561,3.697,8.258,8.258,8.258h330.323c4.561,0,8.258-3.697,8.258-8.258
	V57.806c0-4.561-3.697-8.258-8.258-8.258H66.064C61.503,49.548,57.805,53.246,57.805,57.806z"/>
<path style="fill:#FFFFFF;" d="M322.065,82.581H140.386c0,27.365-22.183,49.548-49.548,49.548v297.29
	c27.365,0,49.548,22.183,49.548,49.548h181.677c0-27.365,22.183-49.548,49.548-49.548v-297.29
	C344.247,132.129,322.065,109.946,322.065,82.581z"/>
<path style="fill:#D4F582;" d="M325.388,384.876l-94.163-219.715l-94.163,219.715c-2.336,5.449,1.662,11.511,7.59,11.511h173.146
	C323.727,396.387,327.724,390.325,325.388,384.876z"/>
<path style="fill:#BEE86E;" d="M144.652,396.387h53.541l33.032-231.226l-94.163,219.715
	C134.727,390.325,138.723,396.387,144.652,396.387z"/>
<g>
	<polygon style="fill:#FF8087;" points="209.365,216.167 265.008,243.988 231.225,165.161 	"/>
	<polygon style="fill:#FF8087;" points="180.219,284.174 310.052,349.091 287.531,296.539 194.792,250.171 	"/>
	<path style="fill:#FF8087;" d="M151.074,352.182l88.41,44.205h78.315c1.088,0,2.079-0.26,3.01-0.628l-155.162-77.581
		L151.074,352.182z"/>
</g>
<g>
	<polygon style="fill:#E6646E;" points="206.451,338.581 165.646,318.178 151.074,352.182 200.945,377.118 	"/>
	<polygon style="fill:#E6646E;" points="211.956,300.043 217.462,261.506 194.792,250.171 180.745,282.948 180.219,284.174 	"/>
	<polygon style="fill:#E6646E;" points="222.967,222.968 231.225,165.161 209.365,216.167 	"/>
</g>
<circle style="fill:#FFE17D;" cx="231.229" cy="165.16" r="24.774"/>
<g>
</g>
<g>
</g>
<g>
</g>
<g>
</g>
<g>
</g>
<g>
</g>
<g>
</g>
<g>
</g>
<g>
</g>
<g>
</g>
<g>
</g>
<g>
</g>
<g>
</g>
<g>
</g>
<g>
</g>
</svg>
