<svg id="Capa_1" enable-background="new 0 0 512 512" height="512" viewBox="0 0 512 512" width="512" xmlns="http://www.w3.org/2000/svg"><path d="m452.796 67.683v285.432l-10.756 10.755h-77.604c-5.645 0-10.199 4.574-10.199 10.209v77.593l-10.765 10.765h-263.695c-5.635 0-10.209-4.574-10.209-10.199v-384.555c0-5.625 4.574-10.199 10.209-10.199h362.809c5.636 0 10.21 4.574 10.21 10.199z" fill="#d9ecfd"/><path d="m141.278 352.599c0 4.268 3.459 7.726 7.726 7.726h15.107c4.268 0 7.726-3.459 7.726-7.726 0-4.209-3.366-7.625-7.553-7.718v-201.192c4.187-.093 7.553-3.508 7.553-7.718 0-4.268-3.459-7.726-7.726-7.726h-15.107c-4.268 0-7.726 3.459-7.726 7.726 0 4.209 3.366 7.625 7.553 7.718v201.192c-4.187.093-7.553 3.508-7.553 7.718z" fill="#b5dbfd"/><path d="m227.238 386.655h-112.735c-4.268 0-7.726 3.459-7.726 7.726s3.459 7.726 7.726 7.726h112.735c4.268 0 7.726-3.459 7.726-7.726s-3.458-7.726-7.726-7.726z" fill="#b5dbfd"/><path d="m227.238 413.888h-112.735c-4.268 0-7.726 3.459-7.726 7.726s3.459 7.726 7.726 7.726h112.735c4.268 0 7.726-3.459 7.726-7.726s-3.458-7.726-7.726-7.726z" fill="#b5dbfd"/><path d="m336.354 139.024h-24.898-44.479-52.774c-4.268 0-7.726 3.459-7.726 7.726v171.966c0 4.268 3.459 7.726 7.726 7.726h78.89c4.268 0 7.726-3.459 7.726-7.726s-3.459-7.726-7.726-7.726h-71.163v-156.513h37.321v35.202c0 4.268 3.459 7.726 7.726 7.726 25.736 0 47.035-18.334 51.406-42.929h17.971c4.268 0 7.726-3.459 7.726-7.726s-3.458-7.726-7.726-7.726zm-61.651 42.127v-26.674h27.879c-3.464 13.456-14.261 23.797-27.879 26.674z" fill="#f8f6f6"/><path d="m361.068 57.484v59.081c0 2.813-2.287 5.099-5.099 5.099h-249.397v250.87c0 2.812-2.287 5.099-5.099 5.099h-31.905v-309.95c0-5.625 4.574-10.199 10.209-10.199z" fill="#b5dbfd"/><path d="m452.796 172.628v64.973l-92.696 92.696c-6.779 6.779-15.453 11.332-24.879 13.073l-26.692 4.914c-6.088 1.113-11.404-4.203-10.281-10.281l4.914-26.692c1.731-9.426 6.294-18.111 13.073-24.879l125.177-125.188z" fill="#b5dbfd"/><path d="m313.546 462.438 40.692-40.692v29.927l-10.765 10.765z" fill="#b5dbfd"/><path d="m452.796 67.683v285.432l-10.756 10.755h-29.927l10.755-10.755v-285.432c0-5.625-4.564-10.199-10.199-10.199h29.927c5.626 0 10.2 4.574 10.2 10.199z" fill="#b5dbfd"/><path d="m452.794 353.12-109.315 109.315v-99.115c0-5.631 4.56-10.2 10.2-10.2z" fill="#8dcafc"/><path d="m452.794 353.12-109.315 109.315v-29.927l79.388-79.388z" fill="#64b9fc"/><path d="m355.966 95.393h-288.625v-78.46h288.626c2.815 0 5.1 2.285 5.1 5.1v68.26c0 2.815-2.285 5.1-5.101 5.1z" fill="#fbcc85"/><path d="m361.068 22.036v68.26c0 2.813-2.287 5.099-5.099 5.099h-288.626v-78.459h288.626c2.812 0 5.099 2.277 5.099 5.1z" fill="#fbcc85"/><path d="m361.065 22.03v68.26c0 2.815-2.285 5.1-5.1 5.1h-27.204c2.815 0 5.1-2.285 5.1-5.1v-68.26c0-2.815-2.285-5.1-5.1-5.1h27.204c2.815 0 5.1 2.285 5.1 5.1z" fill="#e8b66b"/><path d="m40.135 16.93h27.204v78.46h-27.204z" fill="#fbcc85"/><path d="m133.061 95.393h-65.72v-78.46h65.72c6.885 11.475 10.843 24.899 10.843 39.23 0 14.321-3.958 27.744-10.843 39.23z" fill="#e8b66b"/><path d="m106.572 57.628v288.626c0 2.823-2.287 5.099-5.099 5.099h-68.26c-2.812 0-5.099-2.277-5.099-5.099v-288.626z" fill="#fbcc85"/><path d="m67.341 132.736c-14.331 0-27.755-3.958-39.23-10.843v-64.262h78.46v64.261c-11.475 6.886-24.899 10.844-39.23 10.844z" fill="#e8b66b"/><circle cx="67.341" cy="56.165" fill="#64b9fc" r="56.165"/><circle cx="67.341" cy="56.165" fill="#1785f8" r="17.565"/><path d="m123.503 56.166c0 31.019-25.144 56.163-56.163 56.163-5.151 0-10.139-.694-14.872-1.999 23.807-6.508 41.291-28.295 41.291-54.163s-17.483-47.656-41.29-54.164c4.733-1.306 9.721-1.999 14.872-1.999 31.018 0 56.162 25.144 56.162 56.162z" fill="#31a7fb"/><path d="m457.362 201.607 40.876-40.876c3.447-3.447 3.447-9.036 0-12.484l-31.385-31.385c-3.447-3.447-9.036-3.447-12.484 0l-40.876 40.876z" fill="#fc9aa1"/><path d="m498.24 160.728-40.878 40.878-16.029-16.029 40.878-40.878c3.446-3.446 3.446-9.038 0-12.484l16.029 16.029c3.445 3.446 3.445 9.038 0 12.484z" fill="#fb8189"/><path d="m474.975 183.99-125.177 125.188c-6.779 6.768-15.453 11.332-24.879 13.063l-13.743 2.534-20.851-20.851 2.534-13.743c1.731-9.426 6.294-18.1 13.073-24.879l125.178-125.177z" fill="#fbcc85"/><path d="m474.975 183.99-125.177 125.188c-6.779 6.779-15.463 11.332-24.879 13.063l-13.743 2.534-16.03-16.03 13.743-2.534c9.416-1.731 18.1-6.284 24.879-13.063l125.177-125.188z" fill="#e8b66b"/><path d="m292.857 290.184-4.915 26.695c-1.12 6.081 4.199 11.399 10.28 10.28l26.695-4.915z" fill="#838383"/><path d="m324.914 322.243-26.69 4.919c-6.086 1.117-11.404-4.201-10.28-10.28l1.292-7.047 19.65-3.62z" fill="#5a5a5a"/><path d="m274.91 425.033-48.084 48.084-56.095-56.095c-7.341-7.341-7.341-19.243 0-26.584l21.501-21.501c7.341-7.341 19.243-7.341 26.584 0z" fill="#f8f6f6"/><path d="m218.817 368.936 56.093 56.093-17.988 17.988-56.093-56.093c-7.342-7.342-19.243-7.342-26.586 0l17.988-17.988c7.343-7.343 19.244-7.343 26.586 0z" fill="#e2e2e2"/><path d="m310.805 465.737-43.276 43.276c-3.983 3.983-10.442 3.983-14.425 0l-62.174-62.174c-3.983-3.983-3.983-10.442 0-14.425l43.276-43.276c3.983-3.983 10.442-3.983 14.425 0l62.174 62.174c3.984 3.983 3.984 10.441 0 14.425z" fill="#fb6672"/><path d="m248.627 389.138 62.173 62.173c3.989 3.989 3.989 10.437 0 14.425l-17.981 17.981c3.981-3.981 3.989-10.437 0-14.425l-62.173-62.173c-3.981-3.981-10.444-3.981-14.425 0l17.981-17.981c3.989-3.988 10.444-3.981 14.425 0z" fill="#fb4a59"/><g fill="#e8b66b"><path d="m336.158 16.936v16.452c0 4.265-3.462 7.726-7.726 7.726-4.275 0-7.726-3.461-7.726-7.726v-16.452z"/><path d="m303.512 16.936v16.452c0 4.265-3.461 7.726-7.726 7.726s-7.726-3.461-7.726-7.726v-16.452z"/><path d="m270.876 16.936v16.452c0 4.265-3.461 7.726-7.726 7.726-4.275 0-7.726-3.461-7.726-7.726v-16.452z"/><path d="m238.229 16.936v16.452c0 4.265-3.451 7.726-7.726 7.726-4.265 0-7.726-3.461-7.726-7.726v-16.452z"/><path d="m205.593 16.936v16.452c0 4.265-3.462 7.726-7.726 7.726-4.265 0-7.726-3.461-7.726-7.726v-16.452z"/><path d="m172.947 16.936v16.452c0 4.265-3.451 7.726-7.726 7.726-4.265 0-7.726-3.461-7.726-7.726v-16.452z"/><path d="m52.282 318.717c0 4.265-3.451 7.726-7.726 7.726h-16.442v-15.453h16.442c4.275.001 7.726 3.462 7.726 7.727z"/><path d="m52.282 286.071c0 4.275-3.451 7.726-7.726 7.726h-16.442v-15.453h16.442c4.275.001 7.726 3.462 7.726 7.727z"/><path d="m52.282 253.435c0 4.265-3.451 7.726-7.726 7.726h-16.442v-15.453h16.442c4.275 0 7.726 3.462 7.726 7.727z"/><path d="m52.282 220.799c0 4.265-3.451 7.726-7.726 7.726h-16.442v-15.453h16.442c4.275 0 7.726 3.451 7.726 7.727z"/><path d="m52.282 188.152c0 4.265-3.451 7.726-7.726 7.726h-16.442v-15.453h16.442c4.275.001 7.726 3.462 7.726 7.727z"/><path d="m52.282 155.516c0 4.265-3.451 7.726-7.726 7.726h-16.442v-15.452h16.442c4.275 0 7.726 3.451 7.726 7.726z"/></g></svg>