<svg xmlns="http://www.w3.org/2000/svg" version="1.1" xmlns:xlink="http://www.w3.org/1999/xlink" width="512" height="512" x="0" y="0" viewBox="0 0 512 512" style="enable-background:new 0 0 512 512" xml:space="preserve" class=""><g><path fill="#5ea75e" d="M51.2 443.733C51.2 481.436 81.764 512 119.467 512h273.066l17.067-4.164L426.667 512h17.065c9.426 0 17.068-7.641 17.068-17.068v-34.121l-10.439-24.804 10.439-39.58V358.4H54.291z" opacity="1" data-original="#7784ff" class=""></path><path fill="#f3f5f9" d="M443.732 477.866c9.426 0 17.068-7.641 17.068-17.068v-68.266c0 9.426-7.641 17.068-17.068 17.068l-324.265-.001c-18.851 0-34.133 15.282-34.133 34.133s15.282 34.133 34.133 34.133z" opacity="1" data-original="#f3f5f9" class=""></path><path fill="#e1e6f0" d="M443.732 409.6h-6.627v51.198c0 9.426-7.641 17.067-17.067 17.067h23.694c9.426 0 17.068-7.641 17.068-17.067v-68.266c0 9.427-7.642 17.068-17.068 17.068z" opacity="1" data-original="#e1e6f0" class=""></path><path fill="#f25a3c" d="m190.233 509.483-13.532-13.532a8.534 8.534 0 0 0-12.068 0l-13.532 13.532c-5.376 5.376-14.567 1.568-14.567-6.034v-59.716H204.8v59.716c0 7.603-9.191 11.41-14.567 6.034z" opacity="1" data-original="#f25a3c" class=""></path><path fill="#5ea75e" d="M437.105 358.4v136.533c0 9.426-7.641 17.067-17.067 17.068h23.694c9.426 0 17.068-7.641 17.068-17.068v-34.128l-10.439-24.798 10.439-39.58V358.4z" opacity="1" data-original="#6270f0" class=""></path><path fill="#e1e6f0" d="M437.105 477.866h6.627c9.424 0 17.064-7.638 17.067-17.061v-68.266c-.003 9.423-7.643 17.061-17.067 17.061h-6.627z" opacity="1" data-original="#e1e6f0" class=""></path><path fill="#e63a3a" d="M181.106 443.733v56.623l9.127 9.127c5.376 5.376 14.567 1.568 14.567-6.034v-59.716z" opacity="1" data-original="#e63a3a"></path><path fill="#cfd7e6" d="M460.8 436.007H86.222c-.575 2.484-.889 5.067-.889 7.726s.314 5.243.889 7.727H460.8z" opacity="1" data-original="#cfd7e6" class=""></path><path fill="#ffbe40" d="M426.666 512h-34.133V375.466l17.067-4.343 17.066 4.343z" opacity="1" data-original="#ffbe40" class=""></path><path fill="#669966" d="M443.732 0h-17.066L410.63 2.833 392.533 0 119.466.001C81.764.001 51.2 30.564 51.2 68.267v375.466c0-37.703 30.564-68.266 68.267-68.266h324.276c9.421-.006 17.057-7.645 17.057-17.067V17.067C460.799 7.641 453.158 0 443.732 0z" opacity="1" data-original="#8db5ff" class=""></path><path fill="#f3f5f9" d="M316.267 102.4H195.733a8 8 0 0 1-8-8V59.2a8 8 0 0 1 8-8h120.533a8 8 0 0 1 8 8v35.2a7.999 7.999 0 0 1-7.999 8z" opacity="1" data-original="#f3f5f9" class=""></path><path fill="#e1e6f0" d="M316.267 51.2h-23.936a8.241 8.241 0 0 1 8.241 8.242v34.717a8.24 8.24 0 0 1-8.241 8.241h23.936a8 8 0 0 0 8-8V59.2a8 8 0 0 0-8-8z" opacity="1" data-original="#e1e6f0" class=""></path><path fill="#5ea75e" d="M443.732 0h-23.693c9.426.001 17.067 7.642 17.067 17.067V358.4c0 9.426-7.641 17.068-17.068 17.068h23.694c9.426 0 17.068-7.641 17.068-17.068V17.067C460.799 7.641 453.158 0 443.732 0zM111.74.448v375.466a68.93 68.93 0 0 1 7.727-.447h7.726V.001h-7.726a68.93 68.93 0 0 0-7.727.447z" opacity="1" data-original="#7784ff" class=""></path><path fill="#ffdf40" d="M392.533.001h34.133v375.466h-34.133z" opacity="1" data-original="#ffdf40" class=""></path></g></svg>