<svg xmlns="http://www.w3.org/2000/svg" version="1.1" xmlns:xlink="http://www.w3.org/1999/xlink" width="512" height="512" x="0" y="0" viewBox="0 0 512 512" style="enable-background:new 0 0 512 512" xml:space="preserve" class=""><g><path d="M108.476 512h336.385v-82.659H108.476c-22.826 0-41.33 18.504-41.33 41.33 0 22.826 18.504 41.329 41.33 41.329z" style="" fill="#87b21f" data-original="#87b21f" class=""></path><path d="M70.466 284.106H413.52v200.615H108.48c-11.421 0-21.744-4.629-29.226-12.11a41.393 41.393 0 0 1-8.788-12.967" style="" fill="#eff1ee" data-original="#eff1ee" class=""></path><path d="M70.466 270.406H413.52v200.616H108.48c-11.421 0-21.744-4.629-29.226-12.11a41.393 41.393 0 0 1-8.788-12.967" style="" fill="#dddddd" data-original="#dddddd" class=""></path><path d="M70.466 256.706H413.52v200.616H108.48c-11.421 0-21.744-4.629-29.226-12.11a41.393 41.393 0 0 1-8.788-12.967" style="" fill="#eff1ee" data-original="#eff1ee" class=""></path><path d="M70.466 243.007H413.52v200.616H108.48c-11.421 0-21.744-4.629-29.226-12.11a41.393 41.393 0 0 1-8.788-12.967" style="" fill="#dddddd" data-original="#dddddd" class=""></path><path d="M444.861 0v429.342H108.484c-22.831 0-41.337 18.505-41.337 41.326V41.326C67.148 18.505 85.653 0 108.484 0h336.377z" style="" fill="#94c825" data-original="#94c825" class="" opacity="1"></path><path d="M108.476 0v429.342c-22.831 0-41.337 18.505-41.337 41.326V41.326C67.139 18.505 85.645 0 108.476 0z" style="" fill="#87b21f" data-original="#87b21f" class=""></path><path d="M270.801 116.667c27.905 0 49.557 19.726 49.557 46.91 0 51.721-79.387 68.32-79.387 98.39v12.268h73.854c3.849 0 6.976 4.09 6.976 9.142 0 4.57-3.126 9.141-6.976 9.141h-85.642c-3.849 0-9.141-2.887-9.141-7.216v-23.335c0-39.453 80.108-57.976 80.108-97.669 0-13.711-9.142-28.868-29.349-28.868-15.396 0-27.183 8.42-27.183 26.222 0 4.09-3.849 7.939-10.586 7.939-5.773 0-9.141-2.887-9.141-11.788.001-24.297 21.171-41.136 46.91-41.136z" style="" fill="#94c825" data-original="#ffffff" class="" opacity="1"></path></g></svg>