<svg xmlns="http://www.w3.org/2000/svg" version="1.1" xmlns:xlink="http://www.w3.org/1999/xlink" width="512" height="512" x="0" y="0" viewBox="0 0 512.001 512" style="enable-background:new 0 0 512 512" xml:space="preserve" class=""><g><path fill="#d2d2d2" d="M477.3 395.059H64.399V72.992a8.258 8.258 0 0 1 8.258-8.258h389.797l43.383 297.29c0 12.226-2.145 22.902-12.016 28.613a32.88 32.88 0 0 1-16.52 4.422zm0 0" opacity="1" data-original="#8bb3ea" class=""></path><path fill="#b2b2b2" d="M462.453 64.734v256.868c0 11.808 8.207 21.785 19.957 24.265 7.574 1.594 13.074 8.39 13.074 16.16v28.61c9.832-5.723 16.516-16.414 16.516-28.61V64.734zm0 0" opacity="1" data-original="#739ad6" class=""></path><g fill="#a4ccff"><path d="M198.195 238.152a8.253 8.253 0 0 1-8.257-8.257v-33.032a8.255 8.255 0 0 1 8.257-8.258c4.563 0 8.258 3.7 8.258 8.258v33.032a8.255 8.255 0 0 1-8.258 8.257zM198.195 155.574a8.255 8.255 0 0 1-8.257-8.258v-33.03a8.253 8.253 0 0 1 8.257-8.259 8.255 8.255 0 0 1 8.258 8.258v33.031a8.258 8.258 0 0 1-8.258 8.258zM256 304.219a8.23 8.23 0 0 1-5.84-2.418 8.252 8.252 0 0 1 0-11.676l49.55-49.55a8.252 8.252 0 0 1 5.837-2.419h41.293a8.258 8.258 0 0 1 0 16.516h-37.871l-47.13 47.129a8.23 8.23 0 0 1-5.839 2.418zM429.418 254.672h-33.031a8.255 8.255 0 0 1-8.258-8.258 8.259 8.259 0 0 1 8.258-8.262h33.031c4.566 0 8.258 3.7 8.258 8.262a8.255 8.255 0 0 1-8.258 8.258zM429.418 205.121h-33.031a8.253 8.253 0 0 1-8.258-8.258 8.258 8.258 0 0 1 8.258-8.258h33.031c4.566 0 8.258 3.7 8.258 8.258a8.253 8.253 0 0 1-8.258 8.258zM346.84 205.121h-41.29a8.253 8.253 0 0 1-8.257-8.258v-82.578a8.259 8.259 0 1 1 16.516 0v74.32h33.03c4.563 0 8.259 3.7 8.259 8.258a8.255 8.255 0 0 1-8.258 8.258zm0 0" fill="#a7a7a7" opacity="1" data-original="#a4ccff" class=""></path></g><path fill="#b2b2b2" d="M165.16 180.348h-16.515a8.258 8.258 0 0 1 0-16.516h16.515c4.567 0 8.258 3.7 8.258 8.258s-3.691 8.258-8.258 8.258zM264.258 180.348h-16.516a8.258 8.258 0 0 1 0-16.516h16.516c4.566 0 8.258 3.7 8.258 8.258s-3.692 8.258-8.258 8.258zM379.871 163.832h-16.516a8.255 8.255 0 0 1-8.257-8.258 8.258 8.258 0 0 1 8.257-8.258h16.516c4.567 0 8.258 3.7 8.258 8.258a8.255 8.255 0 0 1-8.258 8.258zM371.613 304.219h-16.515a8.255 8.255 0 0 1-8.258-8.258 8.255 8.255 0 0 1 8.258-8.258h16.515c4.567 0 8.258 3.7 8.258 8.258a8.258 8.258 0 0 1-8.258 8.258zm0 0" opacity="1" data-original="#dbeaff" class=""></path><path fill="#ffe07d" d="M132.129 295.96C63.719 295.96 83 351.419 83 419.833v16.516h173v-16.516c0-68.414-55.457-123.871-123.871-123.871zm0 0" opacity="1" data-original="#ffe07d" class=""></path><path fill="#ffd064" d="M132.129 295.96c-68.41 0-123.871 55.462-123.871 123.872v16.516h123.87zm0 0" opacity="1" data-original="#ffd064"></path><path fill="#ffe07d" d="M24.773 419.832h-7.375c-8.226 0-15.851 5.621-17.171 13.742-1.684 10.348 6.257 19.29 16.289 19.29h.89c5.852 0 11.645 1.573 16.426 4.945 16.543 11.664 54.277 19.828 98.297 19.828 44.02 0 81.754-8.16 98.297-19.828 4.781-3.375 10.574-4.946 16.426-4.946h.007c8.227 0 15.852-5.62 17.172-13.742.153-.937.227-1.863.227-2.773zm0 0" opacity="1" data-original="#ffe07d" class=""></path><path fill="#ffeaa8" d="M193.898 303.14c-18.441-9.804-39.425-15.437-61.77-15.437s-43.327 5.633-61.769 15.438c-2.675 1.418-4.293 4.27-4.293 7.296v92.88l66.063 8.257 66.066-8.258v-92.878c0-3.028-1.62-5.88-4.297-7.297zm0 0" opacity="1" data-original="#ffeaa8" class=""></path><path fill="#ffe07d" d="M37.16 436.348a8.258 8.258 0 0 1-8.258-8.258v-24.774a8.258 8.258 0 0 1 8.258-8.257c4.567 0 8.258 3.699 8.258 8.257v24.774a8.255 8.255 0 0 1-8.258 8.258zm0 0" opacity="1" data-original="#ffe07d" class=""></path><path fill="#ffeaa8" d="M227.098 436.348a8.255 8.255 0 0 1-8.258-8.258v-24.774a8.255 8.255 0 0 1 8.258-8.257c4.562 0 8.257 3.699 8.257 8.257v24.774a8.258 8.258 0 0 1-8.257 8.258zm0 0" opacity="1" data-original="#ffeaa8" class=""></path><path fill="#ffeaa8" d="M264.258 436.348c-.012-9.114-7.403-16.516-16.516-16.516H24.773c0 9.121 7.395 16.516 16.516 16.516zm0 0" opacity="1" data-original="#ffeaa8" class=""></path><path fill="#ffe07d" d="M66.066 403.316h132.13v16.516H66.065zm0 0" opacity="1" data-original="#ffe07d" class=""></path><path fill="#fff5d7" d="M132.129 386.8c4.566 0 8.258-3.698 8.258-8.257v-90.582a134.48 134.48 0 0 0-8.258-.258c-2.774 0-5.527.09-8.258.258v90.582a8.258 8.258 0 0 0 8.258 8.258zm0 0" opacity="1" data-original="#fff5d7" class=""></path><path fill="#a7a7a7" d="M429.418 353.766H297.289a8.24 8.24 0 0 1-6.266-2.883l-96.628-112.73h-78.782a8.253 8.253 0 0 1-8.258-8.258v-115.61a8.259 8.259 0 0 1 8.258-8.262h313.805c4.566 0 8.258 3.7 8.258 8.262v231.223a8.253 8.253 0 0 1-8.258 8.258zM301.09 337.25h120.07V122.543H123.871v99.094h74.324a8.247 8.247 0 0 1 6.266 2.883zm0 0" opacity="1" data-original="#c3ddff" class=""></path><path fill="#a7a7a7" d="M478.969 8.355v313.247c0 4.011 2.922 7.273 6.847 8.101C500.773 332.855 512 346.13 512 362.023V31.703c0-14.531-9.387-26.871-22.426-31.293-5.222-1.77-10.605 2.43-10.605 7.945zm0 0" opacity="1" data-original="#a4ccff" class=""></path></g></svg>