<svg id="Capa_1" enable-background="new 0 0 496.261 496.261" height="512" viewBox="0 0 496.261 496.261" width="512" xmlns="http://www.w3.org/2000/svg"><g><path d="m389.63 59.261-105 218.5 105 218.5h22.5c4.142 0 7.5-3.358 7.5-7.5v-422c0-4.142-3.358-7.5-7.5-7.5z" fill="#ffbe46"/><path d="m76.63 43.293v445.467c0 4.142 3.358 7.5 7.5 7.5h305.5v-90l-120-157.504 120-159.496v-30z" fill="#ffd567"/><path d="m359.63 2.088-30 28.586 30 28.586h30v-51.759c0-4.42-3.803-7.882-8.204-7.467z" fill="#ff8b2a"/><path d="m91.099 27.397c-8.202.773-14.469 7.659-14.469 15.896 0 8.818 7.149 15.967 15.967 15.967h267.033v-57.172z" fill="#ffa725"/><path d="m106.63 89.261v377h134l7.5-20 7.5 20h134v-377z" fill="#ffe7ad"/><path d="m240.63 366.261h15v100h-15z" fill="#fff"/><path d="m248.13 342.76c-12.426 0-22.5 10.073-22.5 22.5 11.74 2.9 9.089 7.5 22.5 7.5s10.76-4.6 22.5-7.5c0-12.426-10.073-22.5-22.5-22.5z" fill="#ffa725"/><path d="m248.13 134.261v208.5c57.686-22.357 96.5-64.141 96.5-112 0-53.296-43.204-96.5-96.5-96.5z" fill="#ffa725"/><path d="m314.63 230.761c0-53.296-29.773-96.5-66.5-96.5-53.296 0-96.5 43.204-96.5 96.5 0 47.859 38.814 89.643 96.5 112 39.753-22.358 66.5-64.141 66.5-112z" fill="#ffbe46"/></g></svg>