<?xml version="1.0" encoding="iso-8859-1"?>
<!-- Generator: Adobe Illustrator 19.0.0, SVG Export Plug-In . SVG Version: 6.00 Build 0)  -->
<svg version="1.1" id="Layer_1" xmlns="http://www.w3.org/2000/svg" xmlns:xlink="http://www.w3.org/1999/xlink" x="0px" y="0px"
	 viewBox="0 0 512 512" style="enable-background:new 0 0 512 512;" xml:space="preserve">
<path style="fill:#EBC9A0;" d="M485.517,430.052c0,3.474-3.814,5.578-6.758,3.735c-19.144-11.986-52.824-23.305-97.484-23.305
	c-50.5,0-86.963,14.474-104.242,28.018c-12.412,9.725-29.656,9.725-42.068,0c-17.279-13.544-53.741-28.018-104.242-28.018
	c-44.66,0-78.34,11.319-97.484,23.305c-2.944,1.843-6.758-0.262-6.758-3.735v-63.708h459.034V430.052z"/>
<path style="fill:#D7B490;" d="M26.483,414.716c26.13-13.817,62.475-21.889,101.517-21.889c47.574,0,91.407,11.837,117.255,31.663
	c3.169,2.432,6.957,3.647,10.745,3.647s7.576-1.216,10.745-3.647c25.847-19.827,69.681-31.663,117.255-31.663
	c39.042,0,75.388,8.072,101.517,21.889v-48.372H26.483V414.716z"/>
<path style="fill:#FAEBC8;" d="M384,66.206c-53.265,0-100.226,14.005-128,35.31c-27.774-21.305-74.735-35.31-128-35.31
	c-48.367,0-91.538,11.549-119.863,29.624C3.048,99.078,0,104.726,0,110.763v291.189c0,3.493,3.88,5.626,6.799,3.71
	C35.093,387.09,78.866,375.172,128,375.172c53.265,0,100.226,14.005,128,35.31c27.774-21.305,74.735-35.31,128-35.31
	c49.134,0,92.907,11.918,121.201,30.489c2.921,1.917,6.799-0.216,6.799-3.71V110.763c0-6.037-3.048-11.684-8.137-14.932
	C475.538,77.755,432.367,66.206,384,66.206z"/>
<path style="fill:#F5DCB4;" d="M128,66.206c-48.276,0-91.374,11.505-119.702,29.522C3.14,99.009,0,104.651,0,110.763v299.72
	c27.774-21.305,74.735-35.31,128-35.31s100.226,14.005,128,35.31V101.517C228.226,80.211,181.265,66.206,128,66.206z"/>
<g>
</g>
<g>
</g>
<g>
</g>
<g>
</g>
<g>
</g>
<g>
</g>
<g>
</g>
<g>
</g>
<g>
</g>
<g>
</g>
<g>
</g>
<g>
</g>
<g>
</g>
<g>
</g>
<g>
</g>
</svg>
