<svg id="Capa_1" enable-background="new 0 0 497 497" height="512" viewBox="0 0 497 497" width="512" xmlns="http://www.w3.org/2000/svg"><path d="m422 0-60 278.5 60 218.5h22.5c4.142 0 7.5-3.358 7.5-7.5v-482c0-4.142-3.358-7.5-7.5-7.5z" fill="#7be3ff"/><path d="m392 0-60 248.5 60 248.5h30v-497z" fill="#48d9ff"/><path d="m362 0-150 248.5v248.5h180v-497z" fill="#7be3ff"/><path d="m227 332 16.82 151.82 135-135z" fill="#48d9ff"/><path d="m362 0-45 362h30c24.853 0 45-20.147 45-45v-317z" fill="#adeeff"/><path d="m362 317v-317h-309.5c-4.142 0-7.5 3.358-7.5 7.5v482c0 4.142 3.358 7.5 7.5 7.5h159.5c24.853 0 45-20.147 45-45v-90h60c24.853 0 45-20.147 45-45z" fill="#e0f8ff"/></svg>