<svg xmlns="http://www.w3.org/2000/svg" version="1.1" xmlns:xlink="http://www.w3.org/1999/xlink" width="512" height="512" x="0" y="0" viewBox="0 0 512 512" style="enable-background:new 0 0 512 512" xml:space="preserve" class=""><g><path fill="#ffbeb3" d="M57.599 11.418v477.699L432.102 512c33.532 0 60.715-27.183 60.715-60.715V11.418C492.817 5.112 487.706 0 481.4 0H69.017c-6.306 0-11.418 5.112-11.418 11.418z" opacity="1" data-original="#fdf6ec" class=""></path><path fill="#ff6e56" d="M481.4 0h-24.519c6.306 0 11.418 5.112 11.418 11.418v439.867c0 30.047-21.832 54.98-50.494 59.842l14.297.873c33.532 0 60.715-27.183 60.715-60.715V11.418C492.817 5.112 487.706 0 481.4 0z" opacity="1" data-original="#fef1da" class=""></path><path fill="#ee6148" d="m432.102 512-.614-.3c-29.103-14.267-44.379-46.857-37.009-78.42 1.395-5.975-3.759-11.437-9.805-10.39l-358.08 61.979a8.935 8.935 0 0 0-7.411 8.804v9.392c0 4.935 4 8.935 8.935 8.935z" opacity="1" data-original="#fae2c0" class=""></path></g></svg>