<svg xmlns="http://www.w3.org/2000/svg" version="1.1" xmlns:xlink="http://www.w3.org/1999/xlink" width="512" height="512" x="0" y="0" viewBox="0 0 512 512" style="enable-background:new 0 0 512 512" xml:space="preserve" class=""><g><path fill="#ee6148" d="M363.564 40.848c0-22.56 18.195-37.343 40.64-37.343h.758L40.799 0C18.355 0 .16 18.288.16 40.848z" opacity="1" data-original="#91a8dd" class=""></path><path fill="#fff6f4" d="M443.911 42.711C443.911 19.122 424.758 0 401.29 0H40.799C61.56 0 78.39 16.83 78.39 37.592l.128 431.697c0 23.589 19.025 42.711 42.493 42.711H443.91V42.711z" opacity="1" data-original="#e9f2ff" class=""></path><path fill="#fff6f4" d="M443.911 42.711C443.911 19.122 424.758 0 401.29 0H40.799C61.56 0 78.39 16.83 78.39 37.592l.128 431.697c0 23.589 19.025 42.711 42.493 42.711H443.91V42.711z" opacity="1" data-original="#e9f2ff" class=""></path><path fill="#f6c5bc" d="M401.29 0h-51.509c23.468 0 42.621 19.122 42.621 42.711V512h51.509V42.711C443.911 19.122 424.758 0 401.29 0z" opacity="1" data-original="#deebff" class=""></path><path fill="#ee6148" d="M158.738 471.152c0 22.56-18.195 40.848-40.64 40.848h-.758 353.861c22.445 0 40.64-18.288 40.64-40.848z" opacity="1" data-original="#91a8dd" class=""></path><path fill="#e9472a" d="M460.331 471.152c0 22.56-18.195 40.848-40.64 40.848H471.2c22.445 0 40.64-18.288 40.64-40.848z" opacity="1" data-original="#7c96d1" class=""></path><g fill="#91a8dd"><path d="M377.768 143.774H147a7.726 7.726 0 1 0 0 15.452h230.767c4.268 0 7.726-3.459 7.726-7.726s-3.458-7.726-7.725-7.726zM147 111.707h230.767a7.726 7.726 0 1 0 0-15.452H147a7.726 7.726 0 1 0 0 15.452zM377.768 191.295H147a7.726 7.726 0 1 0 0 15.452h230.767a7.725 7.725 0 0 0 7.726-7.726 7.724 7.724 0 0 0-7.725-7.726zM377.768 328.974H147a7.726 7.726 0 1 0 0 15.452h230.767a7.725 7.725 0 0 0 7.726-7.726 7.725 7.725 0 0 0-7.725-7.726zM377.768 376.495H147a7.726 7.726 0 1 0 0 15.452h230.767a7.725 7.725 0 0 0 7.726-7.726 7.724 7.724 0 0 0-7.725-7.726zM147 254.268h159.402a7.726 7.726 0 1 0 0-15.452H147a7.726 7.726 0 1 0 0 15.452z" fill="#ee6148" opacity="1" data-original="#91a8dd" class=""></path></g></g></svg>