<svg id="Capa_1" enable-background="new 0 0 497 497" height="512" viewBox="0 0 497 497" width="512" xmlns="http://www.w3.org/2000/svg"><path d="m422 60-60 218.5 60 218.5h22.5c4.142 0 7.5-3.358 7.5-7.5v-422c0-4.142-3.358-7.5-7.5-7.5z" fill="#077ccc"/><path d="m105 60v429.5c0 4.142 3.358 7.5 7.5 7.5h309.5v-437z" fill="#09a1e5"/><path d="m392 30-60 218.5 60 218.5h22.5c4.142 0 7.5-3.358 7.5-7.5v-422c0-4.142-3.358-7.5-7.5-7.5z" fill="#3ec3ff"/><path d="m75 30v429.5c0 4.142 3.358 7.5 7.5 7.5h309.5v-437z" fill="#7ed7ff"/><path d="m227 272 16.82 151.82 135-135z" fill="#3ec3ff"/><path d="m362 0-45 302h30c24.853 0 45-20.147 45-45v-249.5c0-4.142-3.358-7.5-7.5-7.5z" fill="#bfebff"/><path d="m362 257v-257h-309.5c-4.142 0-7.5 3.358-7.5 7.5v422c0 4.142 3.358 7.5 7.5 7.5h159.5c24.853 0 45-20.147 45-45v-90h60c24.853 0 45-20.147 45-45z" fill="#dff5ff"/></svg>