<svg xmlns="http://www.w3.org/2000/svg" version="1.1" xmlns:xlink="http://www.w3.org/1999/xlink" width="512" height="512" x="0" y="0" viewBox="0 0 512 512" style="enable-background:new 0 0 512 512" xml:space="preserve" class=""><g><path d="M447.48 182.461V502c0 5.523-4.477 10-10 10H74.52c-5.523 0-10-4.477-10-10V10c0-5.523 4.477-10 10-10h362.96c5.523 0 10 4.477 10 10v172.461z" style="" fill="#ff6e56" data-original="#ffbbcc" class="" opacity="1"></path><path d="M93.659 284.098V58.276c16.093 0 29.138-13.046 29.138-29.138h266.407c0 16.093 13.046 29.138 29.138 29.138v395.447c-16.093 0-29.138 13.046-29.138 29.138H122.797c0-16.093-13.046-29.138-29.138-29.138V284.098z" style="" fill="#fcf4f0" data-original="#ffddcc" class="" opacity="1"></path><path d="M205.478 137.77c-28.737 0-52.033 23.296-52.033 52.033s23.296 52.033 52.033 52.033 52.033-23.296 52.033-52.033-23.296-52.033-52.033-52.033zm0 73.049c-11.607 0-21.016-9.409-21.016-21.016 0-11.607 9.409-21.016 21.016-21.016 11.607 0 21.016 9.409 21.016 21.016 0 11.607-9.409 21.016-21.016 21.016z" style="" fill="#fce36f" data-original="#fce36f" class=""></path><path d="M229.974 143.894a51.791 51.791 0 0 1 6.124 24.496c0 28.737-23.296 52.033-52.033 52.033a51.791 51.791 0 0 1-24.496-6.124c8.761 16.385 26.03 27.536 45.909 27.536 28.737 0 52.033-23.296 52.033-52.033-.001-19.878-11.152-37.147-27.537-45.908z" style="" fill="#ffd939" data-original="#ffd939" class=""></path><path d="M296.116 137.77c-28.737 0-52.033 23.296-52.033 52.033s23.296 52.033 52.033 52.033c28.737 0 52.033-23.296 52.033-52.033s-23.297-52.033-52.033-52.033zm0 73.049c-11.607 0-21.016-9.409-21.016-21.016 0-11.607 9.409-21.016 21.016-21.016 11.607 0 21.016 9.409 21.016 21.016-.001 11.607-9.41 21.016-21.016 21.016z" style="" fill="#fce36f" data-original="#fce36f" class=""></path><path d="M320.612 143.894a51.791 51.791 0 0 1 6.124 24.496c0 28.737-23.296 52.033-52.033 52.033a51.791 51.791 0 0 1-24.496-6.124c8.761 16.385 26.03 27.536 45.909 27.536 28.737 0 52.033-23.296 52.033-52.033-.001-19.878-11.152-37.147-27.537-45.908z" style="" fill="#ffd939" data-original="#ffd939" class=""></path><path d="M296.116 137.77h2.414l24.743-24.469-10.926-10.927h-32.463l-10.926 10.927 24.743 24.469z" style="" fill="#b8b9cf" data-original="#bdfffa" class="" opacity="1"></path><path d="M312.347 102.374H298.68l3.816 3.816c3.921 3.921 3.903 10.283-.039 14.181L289.282 133.4l4.419 4.37H298.53l24.743-24.47-10.926-10.926z" style="" fill="#91b0ef" data-original="#93f9ef" class="" opacity="1"></path><path d="M428.341 0v512h9.138c5.523 0 10-4.477 10-10V10c0-5.523-4.477-10-10-10h-9.138zM203.967 295.155a7.805 7.805 0 0 0 0 15.61h104.065a7.805 7.805 0 0 0 0-15.61H203.967zM151.935 364.098h208.13a7.805 7.805 0 0 0 0-15.61h-208.13a7.805 7.805 0 0 0 0 15.61zM151.935 417.431h208.13a7.805 7.805 0 0 0 0-15.61h-208.13a7.805 7.805 0 0 0 0 15.61z" style="" fill="#ee6148" data-original="#ff99aa" class="" opacity="1"></path></g></svg>