<svg xmlns="http://www.w3.org/2000/svg" version="1.1" xmlns:xlink="http://www.w3.org/1999/xlink" width="512" height="512" x="0" y="0" viewBox="0 0 512 512" style="enable-background:new 0 0 512 512" xml:space="preserve" class=""><g><path fill="#fdf6ec" d="M99.122.046c-33.529 0-60.709 27.181-60.709 60.709v428.318l374.465 22.881c33.529 0 60.709-27.18 60.709-60.709V22.927z" opacity="1" data-original="#fdf6ec" class=""></path><path fill="#fef1da" d="M99.122.046c-3.318 0-6.571.276-9.744.788l361.56 22.093v428.318c0 30.211-22.07 55.257-50.965 59.921l12.905.788c33.529 0 60.709-27.181 60.709-60.709V22.927z" opacity="1" data-original="#fef1da"></path><g fill="#fae2c0"><path d="m99.122.046.614.3c29.1 14.265 44.375 46.852 37.006 78.412-1.395 5.974 3.758 11.436 9.804 10.389L504.59 27.174a8.934 8.934 0 0 0 7.411-8.803V8.98c0-4.934-4-8.934-8.934-8.934zM412.878 511.954l-.614-.3c-29.1-14.265-44.375-46.852-37.006-78.412 1.395-5.974-3.758-11.436-9.804-10.389L7.411 484.825A8.936 8.936 0 0 0 0 493.629v9.391c0 4.934 4 8.934 8.934 8.934z" fill="#fae2c0" opacity="1" data-original="#fae2c0" class=""></path></g></g></svg>