<?xml version="1.0" encoding="UTF-8"?><svg id="a" xmlns="http://www.w3.org/2000/svg" viewBox="0 0 100 100"><path d="M67.68,77.5H27.61V26.26h40.07v51.24Z" style="fill:#36d183;"/><path d="M72.39,73.74l-13.32-4.1-19.64-1.71c-4.11-.72-7.11-4.3-7.11-8.49V22.5h40.07v51.24Z" style="fill:#f1f5fd;"/><path d="M66.85,22.5v50.26l5.53.98V22.5h-5.53Z" style="fill:#dee7fb;"/><path d="M39.64,67.93l32.75,5.8-25.46-15.52s.34,9.71-7.29,9.71h0Z" style="fill:#4d75e4;"/><path d="M39.69,31.74h25.33c.46,0,.83-.37.83-.83s-.37-.83-.83-.83h-25.33c-.46,0-.83.37-.83.83,0,.46.37.83.83.83,0,0,0,0,0,0ZM65.02,35.19h-25.33c-.46,0-.83.37-.83.83,0,.46.37.83.83.83h25.34c.46,0,.83-.37.83-.83,0-.46-.37-.83-.83-.83h0ZM65.02,40.31h-25.33c-.46,0-.83.37-.83.83,0,.46.37.83.83.83h25.34c.46,0,.83-.37.83-.83,0-.46-.37-.83-.83-.83h0ZM65.02,45.43h-25.33c-.46,0-.83.37-.83.83,0,.46.37.83.83.83h25.34c.46,0,.83-.37.83-.83,0-.46-.37-.83-.83-.83h0Z" style="fill:#4d75e4;"/></svg>