<?xml version="1.0" encoding="UTF-8"?><svg id="a" xmlns="http://www.w3.org/2000/svg" width="467.89" height="410.97" viewBox="0 0 467.89 410.97"><g id="b"><rect x="109.27" y="34.27" width="48.34" height="153.21" fill="#f5f5f5" stroke-width="0"/><rect x="133.44" y="34.27" width="24.17" height="152.79" fill="#ebebeb" stroke-width="0"/><rect x="114.79" y="19.22" width="17.07" height="15.04" fill="#f5f5f5" stroke-width="0"/><rect x="127.79" y="19.22" width="4.07" height="15.04" fill="#ebebeb" stroke-width="0"/><polyline points="105.24 34.27 105.24 33.39 159.03 33.39 159.03 34.27" fill="#e0e0e0" stroke-width="0"/><rect x="118.81" y="40.83" width="4.09" height="8.63" fill="#fafafa" stroke-width="0"/><path d="M133.44,52.84c0,.09-5.41.17-12.09.17s-12.08-.08-12.08-.17,5.41-.16,12.08-.16,12.09.07,12.09.16Z" fill="#e0e0e0" stroke-width="0"/><rect x="143.19" y="40.83" width="4.09" height="8.63" fill="#e0e0e0" stroke-width="0"/><path d="M157.82,52.84c0,.09-5.41.17-12.08.17s-12.09-.08-12.09-.17,5.41-.16,12.09-.16,12.08.07,12.08.16Z" fill="#e0e0e0" stroke-width="0"/><rect x="143.19" y="57.96" width="4.09" height="8.63" fill="#e0e0e0" stroke-width="0"/><path d="M157.82,69.97c0,.09-5.41.17-12.08.17s-12.09-.08-12.09-.17,5.41-.16,12.09-.16,12.08.07,12.08.16Z" fill="#e0e0e0" stroke-width="0"/><rect x="143.19" y="75.6" width="4.09" height="8.63" fill="#e0e0e0" stroke-width="0"/><path d="M157.82,87.62c0,.09-5.41.16-12.08.16s-12.09-.07-12.09-.16,5.41-.16,12.09-.16,12.08.07,12.08.16Z" fill="#e0e0e0" stroke-width="0"/><rect x="143.19" y="93.25" width="4.09" height="8.63" fill="#e0e0e0" stroke-width="0"/><path d="M157.82,105.27c0,.09-5.41.16-12.08.16s-12.09-.07-12.09-.16,5.41-.17,12.09-.17,12.08.08,12.08.17Z" fill="#e0e0e0" stroke-width="0"/><rect x="143.19" y="110.4" width="4.09" height="8.63" fill="#e0e0e0" stroke-width="0"/><path d="M157.82,122.42c0,.09-5.41.17-12.08.17s-12.09-.08-12.09-.17,5.41-.16,12.09-.16,12.08.06,12.08.16Z" fill="#e0e0e0" stroke-width="0"/><rect x="143.19" y="127.61" width="4.09" height="8.63" fill="#e0e0e0" stroke-width="0"/><rect x="143.19" y="145.05" width="4.09" height="8.63" fill="#e0e0e0" stroke-width="0"/><path d="M157.82,139.62c0,.09-5.41.17-12.08.17s-12.09-.08-12.09-.17,5.41-.16,12.09-.16,12.08.07,12.08.16Z" fill="#e0e0e0" stroke-width="0"/><rect x="118.81" y="58.22" width="4.09" height="8.63" fill="#fafafa" stroke-width="0"/><path d="M133.44,70.23c0,.09-5.41.17-12.09.17s-12.1-.08-12.1-.17,5.41-.16,12.08-.16,12.11.07,12.11.16Z" fill="#e0e0e0" stroke-width="0"/><rect x="118.81" y="75.61" width="4.09" height="8.63" fill="#fafafa" stroke-width="0"/><path d="M133.44,87.63c0,.09-5.41.16-12.09.16s-12.1-.07-12.1-.16,5.41-.17,12.08-.17,12.11.08,12.11.17Z" fill="#e0e0e0" stroke-width="0"/><rect x="118.81" y="93" width="4.09" height="8.63" fill="#fafafa" stroke-width="0"/><path d="M133.44,105.02c0,.09-5.41.16-12.09.16s-12.1-.07-12.1-.16,5.41-.17,12.08-.17,12.11.08,12.11.17Z" fill="#e0e0e0" stroke-width="0"/><rect x="118.81" y="110.4" width="4.09" height="8.63" fill="#fafafa" stroke-width="0"/><path d="M133.44,122.42c0,.09-5.41.17-12.09.17s-12.1-.09-12.1-.17,5.41-.16,12.08-.16,12.11.06,12.11.16Z" fill="#e0e0e0" stroke-width="0"/><rect x="118.81" y="127.79" width="4.09" height="8.63" fill="#fafafa" stroke-width="0"/><path d="M133.44,139.8c0,.09-5.41.17-12.09.17s-12.08-.08-12.08-.17,5.41-.16,12.08-.16,12.09.07,12.09.16Z" fill="#e0e0e0" stroke-width="0"/><rect x="118.81" y="145.18" width="4.09" height="8.63" fill="#fafafa" stroke-width="0"/><rect x="286.31" y="66.75" width="48.34" height="153.21" fill="#f5f5f5" stroke-width="0"/><rect x="310.49" y="66.75" width="24.17" height="152.79" fill="#ebebeb" stroke-width="0"/><rect x="291.84" y="51.71" width="17.07" height="15.04" fill="#f5f5f5" stroke-width="0"/><rect x="304.84" y="51.71" width="4.07" height="15.04" fill="#ebebeb" stroke-width="0"/><polyline points="282.29 66.75 282.29 65.87 336.07 65.87 336.07 66.75" fill="#e0e0e0" stroke-width="0"/><rect x="295.86" y="73.31" width="4.09" height="8.63" fill="#fafafa" stroke-width="0"/><path d="M310.49,85.33c0,.09-5.41.16-12.09.16s-12.09-.07-12.09-.16,5.42-.17,12.09-.17,12.09.08,12.09.17Z" fill="#e0e0e0" stroke-width="0"/><rect x="320.24" y="73.31" width="4.09" height="8.63" fill="#e0e0e0" stroke-width="0"/><path d="M334.87,85.33c0,.09-5.41.16-12.09.16s-12.08-.07-12.08-.16,5.41-.17,12.08-.17,12.09.08,12.09.17Z" fill="#e0e0e0" stroke-width="0"/><rect x="320.24" y="90.44" width="4.09" height="8.63" fill="#e0e0e0" stroke-width="0"/><path d="M334.87,102.42c0,.09-5.41.16-12.09.16s-12.08-.07-12.08-.16,5.41-.17,12.08-.17,12.09.17,12.09.17Z" fill="#e0e0e0" stroke-width="0"/><rect x="320.24" y="108.09" width="4.09" height="8.63" fill="#e0e0e0" stroke-width="0"/><path d="M334.87,120.11c0,.09-5.41.16-12.09.16s-12.08-.07-12.08-.16,5.41-.17,12.08-.17,12.09.08,12.09.17Z" fill="#e0e0e0" stroke-width="0"/><rect x="320.24" y="125.74" width="4.09" height="8.63" fill="#e0e0e0" stroke-width="0"/><path d="M334.87,137.75c0,.1-5.41.17-12.09.17s-12.08-.07-12.08-.17,5.41-.16,12.08-.16,12.09.07,12.09.16Z" fill="#e0e0e0" stroke-width="0"/><rect x="320.24" y="142.88" width="4.09" height="8.63" fill="#e0e0e0" stroke-width="0"/><path d="M334.87,154.9c0,.09-5.41.16-12.09.16s-12.08-.07-12.08-.16,5.41-.17,12.08-.17,12.09.08,12.09.17Z" fill="#e0e0e0" stroke-width="0"/><rect x="320.24" y="160.09" width="4.09" height="8.63" fill="#e0e0e0" stroke-width="0"/><rect x="320.24" y="177.53" width="4.09" height="8.63" fill="#e0e0e0" stroke-width="0"/><path d="M334.87,172.11c0,.09-5.41.16-12.09.16s-12.08-.07-12.08-.16,5.41-.16,12.08-.16,12.09.07,12.09.16Z" fill="#e0e0e0" stroke-width="0"/><rect x="295.86" y="90.7" width="4.09" height="8.63" fill="#fafafa" stroke-width="0"/><path d="M310.49,102.72c0,.09-5.41.16-12.09.16s-12.09-.07-12.09-.16,5.42-.16,12.09-.16,12.09.07,12.09.16Z" fill="#e0e0e0" stroke-width="0"/><rect x="295.86" y="108.1" width="4.09" height="8.63" fill="#fafafa" stroke-width="0"/><path d="M310.49,120.11c0,.09-5.41.17-12.09.17s-12.09-.08-12.09-.17,5.42-.16,12.09-.16,12.09.07,12.09.16Z" fill="#e0e0e0" stroke-width="0"/><rect x="295.86" y="125.49" width="4.09" height="8.63" fill="#fafafa" stroke-width="0"/><path d="M310.49,137.5c0,.1-5.41.17-12.09.17s-12.09-.07-12.09-.17,5.42-.16,12.09-.16,12.09.08,12.09.16Z" fill="#e0e0e0" stroke-width="0"/><rect x="295.86" y="142.88" width="4.09" height="8.63" fill="#fafafa" stroke-width="0"/><path d="M310.49,154.9c0,.09-5.41.16-12.09.16s-12.09-.07-12.09-.16,5.42-.17,12.09-.17,12.09.08,12.09.17Z" fill="#e0e0e0" stroke-width="0"/><rect x="295.86" y="160.28" width="4.09" height="8.63" fill="#fafafa" stroke-width="0"/><path d="M310.49,172.29c0,.09-5.41.16-12.09.16s-12.09-.07-12.09-.16,5.42-.16,12.09-.16,12.09.07,12.09.16Z" fill="#e0e0e0" stroke-width="0"/><rect x="295.86" y="177.67" width="4.09" height="8.63" fill="#fafafa" stroke-width="0"/><rect x="316.74" y="126.2" width="78.28" height="103.24" fill="#ebebeb" stroke-width="0"/><rect x="358.31" y="126.2" width="36.7" height="103.24" fill="#e0e0e0" stroke-width="0"/><rect x="333.15" y="140.18" width="7.04" height="17.1" fill="#f5f5f5" stroke-width="0"/><rect x="333.15" y="207.1" width="7.04" height="17.1" fill="#f5f5f5" stroke-width="0"/><path d="M358.31,163.99c0,.19-9.3.34-20.78.34s-20.79-.15-20.79-.34,9.3-.35,20.79-.35,20.78.15,20.78.35Z" fill="#f5f5f5" stroke-width="0"/><rect x="333.15" y="173.89" width="7.04" height="17.1" fill="#f5f5f5" stroke-width="0"/><path d="M358.31,197.7c0,.19-9.3.35-20.78.35s-20.79-.16-20.79-.35,9.3-.35,20.79-.35,20.78.16,20.78.35Z" fill="#f5f5f5" stroke-width="0"/><rect x="366.11" y="140.18" width="7.04" height="17.1" fill="#f5f5f5" stroke-width="0"/><rect x="381.38" y="140.18" width="7.04" height="17.1" fill="#f5f5f5" stroke-width="0"/><rect x="366.11" y="172.62" width="7.04" height="17.1" fill="#f5f5f5" stroke-width="0"/><rect x="381.38" y="172.62" width="7.04" height="17.1" fill="#f5f5f5" stroke-width="0"/><rect x="366.11" y="205.07" width="7.04" height="17.1" fill="#f5f5f5" stroke-width="0"/><rect x="381.38" y="205.07" width="7.04" height="17.1" fill="#f5f5f5" stroke-width="0"/><rect x="310.85" y="122.6" width="90.05" height="3.72" fill="#e0e0e0" stroke-width="0"/><path d="M395.56,126.68c0,.19-17.49.34-39.07.34s-39.08-.15-39.08-.34,17.5-.35,39.08-.35,39.07.15,39.07.35Z" fill="#ebebeb" stroke-width="0"/><polygon points="139.68 231.5 68.54 231.5 68.23 119.07 139.37 119.07 139.68 231.5" fill="#ebebeb" stroke-width="0"/><rect x="103.8" y="119.07" width="35.57" height="112.43" fill="#e0e0e0" stroke-width="0"/><rect x="76.35" y="96.94" width="25.12" height="22.13" fill="#ebebeb" stroke-width="0"/><rect x="95.48" y="96.94" width="5.99" height="22.13" fill="#e0e0e0" stroke-width="0"/><rect x="62.3" y="117.78" width="79.15" height="1.29" fill="#e0e0e0" stroke-width="0"/><rect x="82.27" y="128.73" width="6.02" height="12.7" fill="#fff" stroke-width="0"/><path d="M103.8,146.42c0,.13-8,.24-17.79.24s-17.76-.12-17.76-.24,8-.24,17.78-.24,17.77.09,17.77.24Z" fill="#e0e0e0" stroke-width="0"/><rect x="118.15" y="128.73" width="6.02" height="12.7" fill="#f5f5f5" stroke-width="0"/><path d="M139.68,146.42c0,.13-8,.24-17.79.24s-17.78-.11-17.78-.24,8-.24,17.78-.24,17.79.09,17.79.24Z" fill="#ebebeb" stroke-width="0"/><rect x="118.15" y="153.94" width="6.02" height="12.7" fill="#f5f5f5" stroke-width="0"/><path d="M139.68,171.62c0,.13-8,.24-17.79.24s-17.78-.11-17.78-.24,8-.25,17.78-.25,17.79.11,17.79.25Z" fill="#ebebeb" stroke-width="0"/><rect x="118.15" y="179.91" width="6.02" height="12.7" fill="#f5f5f5" stroke-width="0"/><path d="M139.68,197.59c0,.13-8,.24-17.79.24s-17.78-.11-17.78-.24,8-.25,17.78-.25,17.79.08,17.79.25Z" fill="#ebebeb" stroke-width="0"/><rect x="118.15" y="205.87" width="6.02" height="12.7" fill="#f5f5f5" stroke-width="0"/><path d="M139.68,223.56c0,.13-8,.24-17.79.24s-17.78-.11-17.78-.24,8-.25,17.78-.25,17.79.11,17.79.25Z" fill="#ebebeb" stroke-width="0"/><rect x="82.27" y="154.32" width="6.02" height="12.7" fill="#fff" stroke-width="0"/><path d="M103.8,172c0,.14-8,.24-17.79.24s-17.76-.1-17.76-.24,8-.24,17.78-.24,17.77.11,17.77.24Z" fill="#e0e0e0" stroke-width="0"/><rect x="82.27" y="179.91" width="6.02" height="12.7" fill="#fff" stroke-width="0"/><path d="M103.8,197.59c0,.14-8,.25-17.79.25s-17.76-.11-17.76-.25,8-.24,17.78-.24,17.77.07,17.77.24Z" fill="#e0e0e0" stroke-width="0"/><rect x="82.27" y="205.51" width="6.02" height="12.7" fill="#fff" stroke-width="0"/><path d="M103.8,223.19c0,.13-8,.24-17.79.24s-17.76-.11-17.76-.24,8-.24,17.78-.24,17.77.1,17.77.24Z" fill="#e0e0e0" stroke-width="0"/><path d="M421.41,96.35c.38-2.74-3.48-5-6.38-5.22-1.39.06-2.77-.06-4.13-.35-2.83-1-4-4.66-6.73-5.82-2.07-.88-4.45-.1-6.46.91s-4,2.28-6.23,2.42c-2,.13-4.07-.6-5.77.36-1.27.71-1.94,2.17-3.11,3-1.22.75-2.63,1.13-4.06,1.1-1.43-.04-2.85.19-4.19.68-1.37.53-2.23,1.9-2.1,3.36l49.16-.44Z" fill="#f5f5f5" stroke-width="0"/><path d="M301.06,18.42c.59-4.27-5.45-7.79-10-8.16-2.16-.17-4.41.16-6.45-.55-4.44-1.55-6.22-7.29-10.55-9.12-3.24-1.36-7-.15-10.11,1.43s-6.24,3.57-9.75,3.8c-3,.19-6.37-.94-9,.55-2,1.11-3,3.41-4.86,4.76s-4.14,1.6-6.36,1.72-4.53.15-6.56,1.07-3.7,3.08-3.28,5.26l76.92-.76Z" fill="#ebebeb" stroke-width="0"/><path d="M95.45,77.62c.47-3.41-4.34-6.22-8-6.51-1.72-.14-3.51.13-5.15-.44-3.54-1.24-5-5.81-8.4-7.27-2.59-1.09-5.56-.12-8.06,1.14s-5,2.85-7.78,3c-2.43.15-5.07-.75-7.2.44-1.59.88-2.42,2.71-3.88,3.79-1.52.94-3.28,1.42-5.07,1.37-1.78-.04-3.55.25-5.23.86-1.61.74-2.95,2.45-2.61,4.19l61.38-.57Z" fill="#f5f5f5" stroke-width="0"/></g><g id="c"><path d="M60.08,152.83c-11.79.28-21.12,10.08-20.84,21.87.1,4.3,1.5,8.46,4.01,11.95h0l.2.29h0l15.13,20.57c1.06,1.44,3.1,1.75,4.54.69.3-.22.56-.49.77-.8l13.67-20.33c2.58-3.94,4.36-8.07,4.36-12.93-.02-11.8-9.61-21.34-21.4-21.32-.15,0-.29,0-.44,0ZM60.59,189.72c-8.87,0-16.06-7.19-16.06-16.06s7.19-16.06,16.06-16.06,16.06,7.19,16.06,16.06h0c0,8.87-7.19,16.06-16.06,16.06h0Z" fill="#4d75e4" stroke-width="0"/><g fill-opacity="0.3"><path d="M60.08,152.83c-11.79.28-21.12,10.08-20.84,21.87.1,4.3,1.5,8.46,4.01,11.95h0l.2.29h0l15.13,20.57c1.06,1.44,3.1,1.75,4.54.69.3-.22.56-.49.77-.8l13.67-20.33c2.58-3.94,4.36-8.07,4.36-12.93-.02-11.8-9.61-21.34-21.4-21.32-.15,0-.29,0-.44,0ZM60.59,189.72c-8.87,0-16.06-7.19-16.06-16.06s7.19-16.06,16.06-16.06,16.06,7.19,16.06,16.06h0c0,8.87-7.19,16.06-16.06,16.06h0Z" fill="#000" stroke-width="0"/></g><path d="M58.82,152.83c-11.38.3-20.54,9.45-20.85,20.83-.13,4.66,1.27,9.22,4,13h0l.21.29h0l15.12,20.57c1.05,1.46,3.08,1.79,4.54.75.32-.23.6-.52.81-.85l13.67-20.33c2.59-3.94,4.36-8.07,4.36-12.93-.01-11.8-9.59-21.35-21.38-21.34-.16,0-.32,0-.48,0ZM59.32,186.83c-6.72,0-12.16-5.45-12.15-12.17,0-6.72,5.45-12.16,12.17-12.15,6.71,0,12.15,5.45,12.15,12.16,0,6.72-5.45,12.16-12.17,12.15h0Z" fill="#4d75e4" stroke-width="0"/><path d="M395.11,132.58c-8.99.2-16.12,7.64-15.92,16.63.07,3.29,1.14,6.48,3.06,9.15h0l.16.22h0l11.53,15.67c.82,1.09,2.37,1.3,3.46.48.21-.16.39-.35.54-.56l10.42-15.49c2.07-2.87,3.23-6.31,3.33-9.85-.02-9-7.33-16.27-16.33-16.25-.08,0-.17,0-.25,0ZM395.5,160.7c-6.76,0-12.24-5.48-12.24-12.24s5.48-12.24,12.24-12.24c6.74,0,12.22,5.46,12.24,12.2.02,6.76-5.44,12.26-12.2,12.28-.01,0-.03,0-.04,0Z" fill="#4d75e4" stroke-width="0"/><g fill-opacity="0.3"><path d="M395.11,132.58c-8.99.2-16.12,7.64-15.92,16.63.07,3.29,1.14,6.48,3.06,9.15h0l.16.22h0l11.53,15.67c.82,1.09,2.37,1.3,3.46.48.21-.16.39-.35.54-.56l10.42-15.49c2.07-2.87,3.23-6.31,3.33-9.85-.02-9-7.33-16.27-16.33-16.25-.08,0-.17,0-.25,0ZM395.5,160.7c-6.76,0-12.24-5.48-12.24-12.24s5.48-12.24,12.24-12.24c6.74,0,12.22,5.46,12.24,12.2.02,6.76-5.44,12.26-12.2,12.28-.01,0-.03,0-.04,0Z" fill="#000" stroke-width="0"/></g><path d="M394.15,132.58c-8.99.21-16.1,7.67-15.89,16.66.08,3.28,1.14,6.46,3.06,9.12h0l.15.22h0l11.52,15.67c.81,1.1,2.36,1.34,3.47.53.23-.17.42-.37.58-.61l10.42-15.49c2.07-2.88,3.23-6.31,3.32-9.85-.01-8.99-7.32-16.27-16.31-16.25-.11,0-.22,0-.32,0ZM394.53,158.49c-5.12,0-9.27-4.15-9.27-9.27s4.15-9.27,9.27-9.27c5.12,0,9.27,4.15,9.27,9.27h0c0,5.11-4.14,9.26-9.25,9.27h-.02Z" fill="#4d75e4" stroke-width="0"/></g><g id="d"><polygon points="71.76 229.61 .34 406.97 134.25 384.95 232.46 406.97 333.04 384.95 467.55 410.61 395.54 229.61 315.19 209.37 233.95 224.85 150.92 209.37 71.76 229.61" fill="#fff" stroke-width="0"/><path d="M71.76,229.61l1.31-.35,3.91-1,15.32-3.95,58.59-15h.05l83,15.43h-.07l81.24-15.5h.14l80.34,20.18h.12v.11l72,181,.18.44-.47-.09-69.19-13.2-65.32-12.46h.11l-100.59,22h-.06l-98.2-22h.08L.33,407.22l-.33.05.13-.31c22.09-54.76,40-99.1,52.34-129.75l14.26-35.27,3.71-9.16c.84-2.06,1.28-3.11,1.28-3.11,0,0-.41,1.07-1.24,3.15l-3.68,9.2-14.13,35.27L.52,407.04l-.21-.26,133.94-22.06h.09l98.2,22h-.1l100.58-22h.05l65.32,12.46,69.19,13.2-.29.35-72-181,.16.14-80.34-20.26h.14l-81.27,15.41h-.07l-83-15.52h0l-58.53,14.92-15.35,3.89-3.93,1-1.34.3Z" fill="#263238" stroke-width="0"/><polygon points="75.93 234.37 12.84 398.04 133.66 378.4 233.95 401.61 333.04 377.81 456.24 401.61 391.37 234.37 316.38 215.92 233.95 231.4 149.73 215.92 75.93 234.37" fill="#fff" stroke-width="0"/><polygon points="19.85 379.86 115.88 357.61 112.34 336.93 120.32 331.9 107.9 283.59 69.5 251.04 19.85 379.86" fill="#455a64" stroke-width="0"/><polygon points="12.84 398.04 17.52 385.9 178.54 348.49 187.28 372.56 184.45 377.42 154.21 383.16 133.66 378.4 12.84 398.04" fill="#ebebeb" stroke-width="0"/><polygon points="187.28 346.16 193.67 369.97 212.22 378.03 238.6 366.31 293.95 350.19 276.68 324.17 187.28 346.16" fill="#ebebeb" stroke-width="0"/><polygon points="122.97 354.98 152.89 348.49 146.92 329.05 125.12 334.31 119.32 338.41 122.97 354.98" fill="#e0e0e0" stroke-width="0"/><polygon points="116.86 290.55 127.72 326.2 144.7 322.46 141.64 308.77 178.99 300.4 116.86 290.55" fill="#455a64" stroke-width="0"/><polygon points="72.33 243.72 119.32 281.44 181.7 293.27 248.24 276.73 217.87 228.44 149.73 215.92 75.93 234.37 72.33 243.72" fill="#ebebeb" stroke-width="0"/><polygon points="226.96 230.11 324.51 379.86 333.04 377.81 238.62 230.52 233.95 231.4 226.96 230.11" fill="#ebebeb" stroke-width="0"/><polygon points="147.92 312.54 160.28 348.49 270.02 320.45 249.71 285.88 147.92 312.54" fill="#e0e0e0" stroke-width="0"/><polyline points="208.97 395.83 210.04 394.24 217.25 383.53 234.54 378.03 246.44 369.07 298.01 354.98 314.03 382.37 233.95 401.61" fill="#e0e0e0" stroke-width="0"/><polygon points="300.33 218.93 326.17 247.68 391.37 234.37 316.38 215.92 300.33 218.93" fill="#e0e0e0" stroke-width="0"/><polygon points="405.09 269.74 357.21 283.05 333.04 251.04 393 238.59 405.09 269.74" fill="#e0e0e0" stroke-width="0"/><polygon points="243.74 229.55 293.95 301.67 351.89 285.04 293.95 220.13 243.74 229.55" fill="#ebebeb" stroke-width="0"/><polygon points="384.1 387.67 442.03 364.98 456.24 401.61 384.1 387.67" fill="#e0e0e0" stroke-width="0"/><polygon points="323.51 297.36 354.99 289.15 388.24 329.05 355.88 339.79 323.51 297.36" fill="#455a64" stroke-width="0"/><polygon points="362.08 285.88 397.11 326.04 423.49 317.18 406.14 272.46 362.08 285.88" fill="#e0e0e0" stroke-width="0"/><polygon points="388.24 378.3 362.08 342.01 425.31 321.86 438.15 354.98 429.91 363.27 388.24 378.3" fill="#455a64" stroke-width="0"/><polygon points="297.02 306.97 345.08 379.86 374.68 385.85 380.26 383.3 319.36 300.24 297.02 306.97" fill="#e0e0e0" stroke-width="0"/><polygon points="100.06 361.28 88.09 304.98 45.87 312.36 19.85 379.86 100.06 361.28" fill="#e0e0e0" stroke-width="0"/><polygon points="138.88 218.63 138.88 244.41 147.92 245.55 173.16 274.95 194.86 272.46 205.19 287.43 181.7 293.27 119.32 281.44 72.33 243.72 75.93 234.37 138.88 218.63" fill="#455a64" stroke-width="0"/><polygon points="270.84 224.69 306.29 276.42 336.83 268.17 293.95 220.13 270.84 224.69" fill="#e0e0e0" stroke-width="0"/><polygon points="374.91 278.13 362.08 258.08 396.76 248.28 405.09 269.74 374.91 278.13" fill="#ebebeb" stroke-width="0"/><polygon points="323.51 347.15 340.3 341.34 372.86 385.48 345.08 379.86 323.51 347.15" fill="#ebebeb" stroke-width="0"/><polygon points="168.66 386.5 184.27 384.6 189.47 376.99 208.97 383.12 203.87 394.65 168.66 386.5" fill="#455a64" stroke-width="0"/><path d="M75.93,234.42l4.86-1.25,14.28-3.6,54.63-13.73h.05l84.23,15.43h-.07l82.43-15.51h.09l75,18.43h.11v.12c19.91,51.11,41.84,107.67,64.94,167.21l.17.44-.46-.09-61.81-11.94-61.39-11.87h.11l-99.09,23.8h-.12l-100.28-23.23h.09l-120.83,19.6-.32.05.11-.31c19.53-50.55,35.34-91.47,46.26-119.75,5.47-14.12,9.71-25.09,12.59-32.53l3.29-8.45c.74-1.91,1.13-2.87,1.13-2.87,0,0-.37,1-1.1,2.91l-3.24,8.48-12.51,32.6-46.06,119.75-.21-.25,120.81-19.68h.09l100.29,23.24h-.11l99.09-23.81h.06l61.44,11.81,61.77,11.94-.29.35c-23.09-59.55-45-116.07-64.85-167.25l.16.14-75-18.47h.09l-82.44,15.44h-.07l-84.2-15.52h0l-54.5,13.58-14.31,3.55-4.91,1.24Z" fill="#263238" stroke-width="0"/><g fill-opacity="0.2"><polygon points="232.46 406.97 233.95 224.85 150.92 209.37 134.25 384.95 232.46 406.97" fill="#000" stroke-width="0"/></g><g fill-opacity="0.2"><polygon points="315.19 209.37 333.04 384.95 467.55 410.61 395.54 229.61 315.19 209.37" fill="#000" stroke-width="0"/></g></g><path d="M234.59,52.51c-58,1.35-105.31,48.63-106.69,106.63-.61,23.81,6.61,47.16,20.55,66.47h0l1.07,1.45.15.21,77.4,105.28c5.44,7.39,15.84,8.98,23.24,3.54,1.54-1.13,2.88-2.53,3.94-4.11l70-104c13.24-20.2,22.32-41.3,22.32-66.18,0-60.38-48.94-109.32-109.32-109.32-.89,0-1.78.01-2.66.03ZM237.19,241.3c-45.39,0-82.19-36.79-82.2-82.18s36.79-82.19,82.18-82.2c45.39,0,82.19,36.79,82.2,82.18h0c0,45.4-36.79,82.19-82.18,82.2Z" fill="#4d75e4" stroke-width="0"/><g fill-opacity="0.3"><path d="M234.59,52.51c-58,1.35-105.31,48.63-106.69,106.63-.61,23.81,6.61,47.16,20.55,66.47h0l1.07,1.45.15.21,77.4,105.28c5.44,7.39,15.84,8.98,23.24,3.54,1.54-1.13,2.88-2.53,3.94-4.11l70-104c13.24-20.2,22.32-41.3,22.32-66.18,0-60.38-48.94-109.32-109.32-109.32-.89,0-1.78.01-2.66.03ZM237.19,241.3c-45.39,0-82.19-36.79-82.2-82.18s36.79-82.19,82.18-82.2c45.39,0,82.19,36.79,82.2,82.18h0c0,45.4-36.79,82.19-82.18,82.2Z" fill="#000" stroke-width="0"/></g><path d="M228.11,52.51c-58,1.35-105.31,48.63-106.69,106.63-.61,23.81,6.61,47.16,20.55,66.47h0l1.07,1.45.15.21,77.4,105.28c5.44,7.39,15.84,8.98,23.24,3.54,1.54-1.13,2.88-2.53,3.94-4.11l70-104c13.24-20.2,22.32-41.3,22.32-66.18,0-60.38-48.94-109.32-109.32-109.32-.89,0-1.78.01-2.66.03ZM230.71,241.3c-45.39,0-82.19-36.79-82.2-82.18s36.79-82.19,82.18-82.2c45.39,0,82.19,36.79,82.2,82.18h0c0,45.4-36.79,82.19-82.18,82.2Z" fill="#4d75e4" stroke-width="0"/><g fill-opacity="0.3"><path d="M277.99,221.1c-1.32,1.49-88.23,24.44-89.54,25.93,16.66,5.08,37,9.5,54.42,8.49,9.81-.56,20-2.31,27.8-8.35s12.04-17.45,7.32-26.07Z" fill="#000" stroke-width="0"/></g><path d="M194.99,55.24c-5.09,5.41-7.21,12.97-5.68,20.24.76,3.46,2.28,7.32.38,10.31s-6.32,3.5-8.09,6.53c-2.1,3.55.7,8,.35,12.14-.47,3.99-3.76,7.05-7.77,7.22,5.01,3.03,10.76,4.63,16.62,4.6,1.2-2.08,2.4-4.16,3.59-6.24-1.38,2.21-.5,5.28,1.39,7.07s4.53,2.54,7.1,3c12.5,2.01,25.22-1.95,34.37-10.69" fill="#263238" stroke-width="0"/><path d="M265.11,76.94c-1.25-2.56-3.07-4.84-4-7.52-2.1-5.75-.15-12.84-3.78-17.77-2.58-3.52-7.2-4.77-11.51-5.46s-8.88-1.15-12.38-3.74c-2.57-1.91-4.28-4.79-6.84-6.7-3.65-2.73-8.54-3.14-13.08-2.79s-9.42,1.46-13.27,4.11-6.79,6.94-6.89,11.62c-.05,2.28.55,4.58.15,6.82-.44,2.47-2,4.57-2.87,6.93-1.68,5.21.37,10.9,5,13.83l37.5,36.57c7,1.58,22.76-3.73,27.22-9.38s7.89-20.04,4.75-26.52Z" fill="#263238" stroke-width="0"/><path d="M195.68,70.94c0-9.49,5.55-21.49,15-21.08l29.9,5.59c2.88.13,5.19,2.44,5.31,5.32l1.3,71.16h.2s-5.4,20.44-25.24,15.59c-3.94-1-6-5.06-7-9.35h-.19c-.05-.52-.08-1-.12-1.49-.59-3.21-.84-6.47-.75-9.73h0c-.43-5.73-.57-8.08-.57-8s-12.21-1.24-15.7-16.85c-1.73-7.68-2.14-20.61-2.14-31.16Z" fill="#ffbe9d" stroke-width="0"/><path d="M223.07,80.67c.04,1.1.97,1.96,2.08,1.92,0,0,0,0,0,0,1.07.03,1.97-.81,2-1.88,0-.02,0-.05,0-.07-.04-1.1-.97-1.96-2.08-1.92,0,0,0,0,0,0-1.07-.03-1.97.81-2,1.88,0,.02,0,.05,0,.07Z" fill="#263238" stroke-width="0"/><path d="M202.42,82.25c.04,1.1.97,1.96,2.08,1.92,0,0,0,0,0,0,1.07.03,1.97-.81,2-1.88,0-.04,0-.08,0-.12-.05-1.1-.98-1.96-2.08-1.91-1.07-.04-1.96.79-2,1.86,0,.04,0,.09,0,.13Z" fill="#263238" stroke-width="0"/><path d="M198.08,77.78c.27.33,2-1.1,4.35-1.09s4.09,1.4,4.36,1.06c.13-.15-.14-.75-.89-1.4-.98-.82-2.21-1.26-3.49-1.27-1.28.02-2.5.5-3.46,1.34-.7.6-1,1.21-.87,1.36Z" fill="#263238" stroke-width="0"/><path d="M220.06,77.24c.32.3,2-1.29,4.49-1.53s4.49.92,4.73.57c.12-.16-.22-.73-1.09-1.28-1.15-.69-2.49-.99-3.83-.85-1.33.13-2.57.71-3.54,1.63-.71.71-.92,1.33-.76,1.46Z" fill="#263238" stroke-width="0"/><path d="M213.42,93.15c-1.17-.28-2.37-.42-3.58-.41-.55,0-1.09-.1-1.2-.48-.09-.57,0-1.15.26-1.67.44-1.37.9-2.82,1.38-4.33,1.91-6.17,3.25-11.22,3-11.3s-2,4.87-3.9,11c-.46,1.52-.89,3-1.31,4.36-.31.69-.36,1.47-.15,2.2.2.39.57.67,1,.75.33.07.67.09,1,.07,1.17.09,2.35.02,3.5-.19Z" fill="#263238" stroke-width="0"/><path d="M213.53,118.99c7.42-.36,14.59-2.76,20.72-6.95,0,0-4.44,11.15-20.32,10.66l-.4-3.71Z" fill="#eb996e" stroke-width="0"/><path d="M214.67,98.34c.77-1.11,2.07-1.75,3.42-1.68.98.03,1.9.45,2.56,1.17.64.71.77,1.74.33,2.59-.67.84-1.78,1.2-2.81.9-1.05-.3-2.03-.81-2.88-1.49-.26-.15-.48-.36-.66-.6-.17-.24-.17-.57,0-.81" fill="#4d75e4" stroke-width="0"/><path d="M219.92,94.26c-.36,0-.22,2.36-2.13,4.16s-4.45,1.7-4.45,2c0,.15.59.42,1.66.38,1.38-.07,2.7-.62,3.72-1.56.97-.91,1.55-2.15,1.63-3.48.03-.96-.27-1.53-.43-1.5Z" fill="#263238" stroke-width="0"/><path d="M219.25,69.88c.26.58,2.41.16,5,.31s4.68.71,5,.16c.13-.26-.26-.8-1.13-1.32-2.34-1.27-5.14-1.41-7.59-.36-.96.44-1.4.93-1.28,1.21Z" fill="#263238" stroke-width="0"/><path d="M199.31,71.11c.46.47,2.14-.15,4.2-.31s3.83.1,4.2-.45c.16-.26-.15-.74-.94-1.16-1.08-.51-2.28-.72-3.47-.59-1.19.09-2.33.5-3.3,1.2-.7.56-.9,1.08-.69,1.31Z" fill="#263238" stroke-width="0"/><path d="M247.25,56.81c-1.75-2-4.5-2.79-7.1-3.4-11.23-2.61-22.72-3.89-34.25-3.79-1.08,2.52.66,5.5,3,6.89s5.19,1.68,7.86,2.27,5.49,1.69,6.89,4c1.49,2.51,1,5.79,2.35,8.37,2.34,4.44,9.07,5,11.38,9.48,1.75,3.37.23,7.42.24,11.22,0,7.49,6.09,13.55,13.58,13.54.58,0,1.17-.04,1.74-.11-1.11-13.52-2.22-27.04-3.32-40.55-.22-2.76-.53-5.79-2.37-7.92Z" fill="#263238" stroke-width="0"/><path d="M279,86.9c-2.39-1.6-5.27-2.87-6.5-5.47-1.78-3.78.74-8.88-1.81-12.19-2.32-3-7.8-2.09-10-5.2-1.72-2.43-.49-5-1.33-7.2s-4.39-3.79-6.69-3.19l-14.59,29.11c-.45,9.14-1.5,14.12,1.14,19.06,1.45,2.71,3.21,5.3,4,8.26s.54,6.48-1.67,8.61c11.06-.68,20.52-7.85,29.23-14.72l9.21-7.27c1.02-.68,1.86-1.6,2.43-2.68,1.17-2.6-1.04-5.52-3.42-7.12Z" fill="#263238" stroke-width="0"/><path d="M270.71,101.25c-.36.17-.74.3-1.13.39-1.13.28-2.29.36-3.45.24-1.84-.18-3.6-.83-5.11-1.9-2-1.46-3.42-3.59-4-6-.36-1.39-.44-2.83-.23-4.25.3-1.49.79-2.94,1.46-4.31.72-1.42,1.23-2.95,1.51-4.52.3-1.63-.16-3.3-1.24-4.56-1.18-1.19-3.08-1.26-4.89-1.71-.98-.2-1.88-.69-2.58-1.4-.66-.78-1.06-1.75-1.15-2.77-.26-2,.34-4,.44-5.87.09-.95-.04-1.91-.37-2.8-.37-.87-1.04-1.58-1.89-2-1.74-.91-3.78-.81-5.75-.7-2,.21-4.02-.09-5.87-.87-1.79-.79-3.33-2.05-4.45-3.65-.98-1.56-1.71-3.26-2.16-5.05-.42-1.65-1.02-3.25-1.77-4.77-.78-1.38-1.84-2.58-3.12-3.52-4.36-3.19-10.27-3.19-14.63,0-1.47,1.03-2.75,2.32-3.77,3.8-.85,1.28-1.55,2.66-2.08,4.1,0-.1.03-.2.06-.3.06-.19.13-.49.27-.85.39-1.09.91-2.12,1.54-3.09,1-1.55,2.28-2.91,3.77-4,1.97-1.44,4.3-2.29,6.73-2.47,2.99-.18,5.95.67,8.4,2.39,1.35.98,2.48,2.23,3.3,3.68.78,1.56,1.39,3.19,1.83,4.87.45,1.72,1.16,3.36,2.1,4.87,1.06,1.5,2.52,2.68,4.2,3.42,1.76.72,3.68.98,5.57.77,2-.1,4.13-.24,6.07.77.98.49,1.76,1.31,2.19,2.32.37.98.52,2.03.42,3.08-.12,2-.7,3.92-.46,5.77.08.89.43,1.74,1,2.42.62.62,1.41,1.05,2.27,1.23.87.23,1.78.34,2.68.58.93.2,1.78.65,2.48,1.3,1.2,1.39,1.71,3.24,1.38,5.05-.29,1.63-.83,3.2-1.58,4.67-.67,1.33-1.16,2.75-1.46,4.21-.21,1.35-.15,2.73.18,4.06.55,2.31,1.9,4.36,3.8,5.78,1.45,1.05,3.15,1.72,4.93,1.94,1.53.18,3.08.06,4.56-.35Z" fill="#455a64" stroke-width="0"/><path d="M282.67,80.34c.22.24.39.53.49.84.3.91.27,1.89-.09,2.78-.25.65-.66,1.22-1.19,1.67-.65.53-1.43.86-2.26.95-2.05.25-4.06-.67-5.22-2.37-.66-.96-1.09-2.07-1.25-3.23-.13-1.25-.04-2.51.27-3.72.53-2.49,1.79-5,1.43-7.8-.08-1.39-.73-2.68-1.79-3.58-1.25-.76-2.74-1.01-4.16-.69-1.58.34-3.21.4-4.81.18-.85-.22-1.61-.7-2.18-1.37-.54-.68-.93-1.47-1.14-2.31-.3-1.62-.39-3.27-.28-4.92.02-1.54-.28-3.07-.89-4.48-1.16-2.69-3.31-4.84-6-6-2.57-1.1-5.34-.87-7.83-.67-2.35.33-4.75.29-7.09-.12-1.92-.43-3.74-1.25-5.34-2.4-1.2-.86-2.27-1.89-3.17-3.07-.78-.98-1.39-2.1-1.79-3.29.57,1.1,1.24,2.15,2,3.13,2.13,2.64,5.1,4.47,8.41,5.19,2.3.36,4.64.36,6.94,0,2.49-.22,5.36-.49,8.11.65,2.85,1.2,5.13,3.44,6.38,6.27.65,1.49.97,3.1.95,4.73-.11,1.59-.02,3.19.27,4.76.27,1.52,1.37,2.77,2.85,3.22,1.53.2,3.07.14,4.58-.18,1.58-.34,3.23-.05,4.6.82,1.19,1,1.91,2.45,2,4,.14,1.42,0,2.86-.43,4.22-.35,1.32-.78,2.55-1.07,3.77-.32,1.15-.41,2.35-.29,3.54.14,1.07.52,2.1,1.13,3,1.05,1.59,2.9,2.47,4.8,2.28.77-.08,1.49-.37,2.1-.84.51-.4.9-.93,1.16-1.52.37-.83.44-1.77.2-2.65-.12-.27-.25-.53-.4-.79Z" fill="#263238" stroke-width="0"/><path d="M168.25,103.05c-.19.97-.03,1.98.43,2.86.52,1.02,1.48,1.76,2.6,2,1.5.23,3-.42,3.87-1.66.48-.72.7-1.57.62-2.43-.1-.95-.38-1.86-.81-2.71-.84-1.77-2.31-3.62-2.47-6.07-.17-2.51.72-4.97,2.45-6.79.9-.95,1.97-1.72,3.16-2.27,1.22-.54,2.5-.91,3.82-1.11,1.27-.19,2.52-.51,3.73-.93,1.13-.41,2.09-1.2,2.69-2.24.51-1.05.73-2.23.61-3.39-.1-1.14-.36-2.27-.76-3.34-.75-2.12-1.71-4.16-1.88-6.27-.16-1.94.26-3.89,1.21-5.59.82-1.36,1.89-2.55,3.15-3.51.92-.73,1.78-1.53,2.58-2.38.66-.74,1.16-1.61,1.47-2.56v.2c-.03.19-.07.39-.14.57-.24.71-.62,1.38-1.11,1.95-.78.89-1.63,1.72-2.54,2.48-1.2.96-2.22,2.13-3,3.46-.87,1.63-1.25,3.48-1.08,5.32.18,2,1.12,4,1.91,6.12.43,1.12.7,2.3.81,3.5.13,1.28-.1,2.57-.67,3.73-.67,1.17-1.73,2.07-3,2.54-1.25.45-2.54.79-3.85,1-1.26.19-2.5.55-3.67,1.06-1.13.51-2.15,1.23-3,2.12-1.62,1.69-2.47,3.98-2.32,6.32.12,2.24,1.49,4,2.36,5.88.45.91.73,1.9.82,2.91.08.97-.18,1.93-.74,2.72-.98,1.36-2.66,2.04-4.31,1.75-2-.51-3.34-2.39-3.17-4.44.03-.28.1-.55.23-.8Z" fill="#263238" stroke-width="0"/><path d="M171.9,164.03s1.68-13.45,8.16-20.17,33.6-15.14,33.6-15.14c0,0,1.12,9.59,7.62,11.9,6.89,2.46,14.67,1.54,19.71-4.32,3.05-3.76,5.19-8.16,6.26-12.88,0,0,32.39,3,37.67,11.86s12.11,43.29,12.11,43.29l-30.28,6.43,4.12,59.26h-80.42l1.57-55.62-21.9,3.13,1.78-27.74Z" fill="#455a64" stroke-width="0"/><path d="M260.78,186.9c-.1-.44-.13-.88-.11-1.33v-3.64c0-3.08.05-7.32.15-12s.22-8.93.35-12c.06-1.54.12-2.78.18-3.64,0-.45.05-.9.17-1.33.09.44.12.88.1,1.33v3.64c0,3.08-.05,7.32-.15,12s-.22,8.93-.35,12c-.06,1.53-.13,2.77-.18,3.63.01.45-.04.9-.16,1.34Z" fill="#263238" stroke-width="0"/><path d="M184.56,162.5c.19-.05,2.08,6,4.22,13.43s3.74,13.56,3.55,13.61-2.07-6-4.22-13.42-3.73-13.56-3.55-13.62Z" fill="#263238" stroke-width="0"/><path d="M281.58,133.1c0,.12-1.44.39-3.65,1.23-5.8,2.22-10.62,6.42-13.62,11.85-1.14,2.07-1.61,3.48-1.73,3.44.02-.34.1-.68.23-1,.28-.91.64-1.8,1.06-2.65,2.84-5.71,7.84-10.06,13.9-12.08.9-.31,1.83-.54,2.77-.69.34-.1.69-.13,1.04-.1Z" fill="#263238" stroke-width="0"/><path d="M179.58,146.57c.18,0,.82,1.83,1.42,4.18s.93,4.3.74,4.35-.82-1.83-1.42-4.18-.93-4.3-.74-4.35Z" fill="#263238" stroke-width="0"/><path d="M291.69,179.66s-9.07,46.06-10.11,50-2.71,14.55-13.7,16.75c-14.83,3-73.06.89-73.06.89l11-13.9,50.95-14.29,7-33.51,27.92-5.94Z" fill="#ffbe9d" stroke-width="0"/><path d="M204.85,225.62c.2.33.35.68.43,1.06.3,1,.49,2.04.58,3.08.31,3.47-.42,6.94-2.08,10-.88,1.7-2.01,3.27-3.33,4.66-1.1,1.13-2.43,2.01-3.89,2.59-.98.37-2.01.6-3.06.69-.38.06-.77.06-1.15,0,1.36-.25,2.7-.62,4-1.11,1.37-.61,2.6-1.49,3.62-2.58,1.25-1.36,2.32-2.88,3.18-4.51,1.6-2.96,2.36-6.3,2.2-9.66-.1-2.64-.63-4.18-.5-4.22Z" fill="#eb996e" stroke-width="0"/><path d="M156.09,171.11s8.21,27.63,11.61,39.57c3.62,12.68,11.53,41.48,28.39,36.37,12.83-3.9,9.06-20.52,9.06-20.52l-13.13-37.94-10.21,1.71-9.91-25.59-15.81,6.4Z" fill="#ffbe9d" stroke-width="0"/><path d="M200.66,227.73c.46-2.06.46-4.19,0-6.25-.54-2.21-1.47-4.32-2.74-6.21-1.6-2.31-3.38-4.49-5.32-6.53-1.95-2.07-3.73-4.29-5.34-6.64-1.28-1.94-2.4-3.98-3.35-6.1-.64-1.43-1.19-2.89-1.64-4.39-.21-.54-.34-1.1-.4-1.68.26.51.48,1.04.65,1.59.4,1,1,2.5,1.84,4.27.99,2.07,2.14,4.06,3.44,5.95,1.61,2.3,3.39,4.48,5.32,6.53,1.96,2.06,3.75,4.29,5.34,6.65,1.29,1.98,2.21,4.18,2.69,6.5.31,1.56.31,3.16,0,4.72-.08.42-.2.83-.35,1.23-.03.13-.08.25-.14.36Z" fill="#eb996e" stroke-width="0"/><path d="M171.9,164.71s.06-11-.91-14.14l-7.8-17.42s-2-1.23-3,2.24,2.08,7.05,2.08,7.05l.24,4.56-3.12-2.58-6.07-11.38s-4.19-8.29-5.27-7-.73,4,1.07,7.55l4.1,8.12s.62,1.44-1.53-.65-6.82-12.21-7.79-13.48-2.29-5-4.38-4.13.59,5.29.59,5.29l6.69,15s-3.88-5.68-4.58-6.64-2.32-4.21-3.59-5.87-2.66-2.3-3.58-1.9c-.93.34-1.44,1.34-1.16,2.29l7.15,12.4s3.57,5.57,3.57,6-3.12-1.84-3.12-1.84l-3-3.82s-3.24-5.72-4.94-5.41-1.4,1.58-1.4,1.58l6,10.42,8.74,11.24,9.34,9.28,5.4-1.74,10.27-5.02Z" fill="#ffbe9d" stroke-width="0"/><path d="M154.71,162.85c.27-1.13.45-2.27.54-3.43.35-2.06,1.06-5.15,3.59-7.14,1.02-.85,2.3-1.34,3.63-1.39h.45v-.48c-.14-2.14-.06-4.18-.14-5.53.06-.74-.04-1.49-.3-2.19-.14.72-.21,1.45-.21,2.18-.15,1.89-.21,3.78-.17,5.67l.41-.48c-1.53,0-3.02.53-4.19,1.52-1.28,1.03-2.26,2.4-2.83,3.94-.45,1.23-.73,2.51-.84,3.82-.17,1.17-.15,2.35.06,3.51Z" fill="#eb996e" stroke-width="0"/></svg>