<?xml version="1.0" encoding="UTF-8"?><svg id="a" xmlns="http://www.w3.org/2000/svg" viewBox="0 0 24 16"><path d="M24,3.56v-.56c0-.8-.32-1.56-.88-2.12-.56-.56-1.33-.88-2.12-.88H3c-.8,0-1.56.32-2.12.88-.56.56-.88,1.33-.88,2.12v.56h24Z" style="fill:#e6e9eb;"/><path d="M0,6.22v6.81c0,.79.32,1.54.88,2.1.56.56,1.33.87,2.12.87h18c.8,0,1.56-.31,2.12-.87.56-.56.88-1.31.88-2.1v-6.81H0Z" style="fill:#e6e9eb;"/><rect y="3.56" width="24" height="2.67" style="fill:#687282;"/><path d="M3.56,9.78c0-.49.4-.89.89-.89h14.22c.98,0,1.78.8,1.78,1.78s-.8,1.78-1.78,1.78H4.44c-.49,0-.89-.4-.89-.89v-1.78Z" style="fill:#fff;"/><path d="M16.89,8.44h1.78c1.23,0,2.22.99,2.22,2.22h0c0,1.23-.99,2.22-2.22,2.22h-1.78c-1.23,0-2.22-.99-2.22-2.22h0c0-1.23.99-2.22,2.22-2.22Z" style="fill:none; stroke:#c12424;"/></svg>